<svg width="263" height="59" viewBox="0 0 263 59" fill="none" xmlns="http://www.w3.org/2000/svg">
<mask id="path-1-outside-1_428_90" maskUnits="userSpaceOnUse" x="73" y="8" width="189" height="20" fill="black">
<rect fill="white" x="73" y="8" width="189" height="20"/>
<path d="M75.8076 9.64844H78.3232L83.0513 22.2603L87.7681 9.64844H90.2837L84.0396 26H82.0405L75.8076 9.64844ZM74.6621 9.64844H77.0542L77.4697 20.5645V26H74.6621V9.64844ZM89.0371 9.64844H91.4404V26H88.6216V20.5645L89.0371 9.64844ZM100.097 9.64844V26H97.278V9.64844H100.097ZM114.503 21.7886C114.503 21.4517 114.451 21.1522 114.346 20.8901C114.249 20.6281 114.073 20.3885 113.818 20.1714C113.564 19.9543 113.204 19.7446 112.74 19.5425C112.283 19.3328 111.699 19.1195 110.988 18.9023C110.21 18.6628 109.491 18.397 108.832 18.105C108.181 17.8055 107.612 17.4611 107.125 17.0718C106.638 16.675 106.26 16.222 105.991 15.7129C105.721 15.1963 105.586 14.6011 105.586 13.9272C105.586 13.2609 105.725 12.6545 106.002 12.1079C106.286 11.5614 106.687 11.0897 107.204 10.6929C107.728 10.2886 108.345 9.97786 109.057 9.76074C109.768 9.53613 110.554 9.42383 111.415 9.42383C112.628 9.42383 113.672 9.64844 114.548 10.0977C115.432 10.5469 116.109 11.1496 116.581 11.9058C117.06 12.6619 117.3 13.4967 117.3 14.4102H114.503C114.503 13.8711 114.387 13.3957 114.155 12.9839C113.931 12.5646 113.586 12.2352 113.122 11.9956C112.665 11.756 112.085 11.6362 111.381 11.6362C110.715 11.6362 110.161 11.7373 109.719 11.9395C109.277 12.1416 108.948 12.4149 108.731 12.7593C108.514 13.1037 108.405 13.493 108.405 13.9272C108.405 14.2342 108.476 14.515 108.619 14.7695C108.761 15.0166 108.978 15.2487 109.27 15.4658C109.562 15.6755 109.929 15.8739 110.371 16.061C110.812 16.2482 111.333 16.4279 111.932 16.6001C112.837 16.8696 113.627 17.1691 114.301 17.4985C114.975 17.8205 115.537 18.1873 115.986 18.5991C116.435 19.0109 116.772 19.4788 116.996 20.0029C117.221 20.5195 117.333 21.1073 117.333 21.7661C117.333 22.4549 117.195 23.0763 116.918 23.6304C116.641 24.1769 116.244 24.6449 115.727 25.0342C115.218 25.416 114.604 25.7118 113.886 25.9214C113.174 26.1235 112.381 26.2246 111.505 26.2246C110.719 26.2246 109.944 26.1198 109.18 25.9102C108.424 25.7005 107.735 25.3823 107.114 24.9556C106.492 24.5213 105.998 23.9823 105.631 23.3384C105.264 22.687 105.081 21.9271 105.081 21.0586H107.9C107.9 21.5902 107.99 22.0431 108.169 22.4175C108.357 22.7918 108.615 23.0988 108.944 23.3384C109.274 23.5705 109.656 23.7427 110.09 23.855C110.531 23.9673 111.003 24.0234 111.505 24.0234C112.164 24.0234 112.714 23.9299 113.156 23.7427C113.605 23.5555 113.942 23.2935 114.166 22.9565C114.391 22.6196 114.503 22.2303 114.503 21.7886ZM128.854 9.64844V26H126.057V9.64844H128.854ZM133.986 9.64844V11.8945H120.97V9.64844H133.986ZM158.486 17.6445V23.8887C158.254 24.1956 157.891 24.5326 157.397 24.8994C156.91 25.2588 156.263 25.5695 155.454 25.8315C154.646 26.0936 153.639 26.2246 152.433 26.2246C151.407 26.2246 150.468 26.0524 149.614 25.708C148.761 25.3561 148.023 24.8433 147.402 24.1694C146.788 23.4956 146.312 22.6758 145.976 21.71C145.639 20.7367 145.47 19.6286 145.47 18.3857V17.2515C145.47 16.0161 145.624 14.9155 145.931 13.9497C146.245 12.9764 146.694 12.1528 147.278 11.479C147.862 10.8052 148.566 10.2961 149.39 9.95166C150.221 9.59977 151.16 9.42383 152.208 9.42383C153.549 9.42383 154.657 9.64844 155.533 10.0977C156.416 10.5394 157.097 11.1533 157.577 11.9395C158.056 12.7256 158.359 13.624 158.486 14.6348H155.724C155.634 14.0658 155.458 13.5566 155.196 13.1074C154.941 12.6582 154.574 12.3063 154.095 12.0518C153.624 11.7897 153.01 11.6587 152.253 11.6587C151.602 11.6587 151.029 11.7822 150.535 12.0293C150.041 12.2764 149.629 12.6395 149.3 13.1187C148.978 13.5978 148.735 14.1818 148.57 14.8706C148.405 15.5594 148.323 16.3455 148.323 17.229V18.3857C148.323 19.2842 148.416 20.0815 148.604 20.7778C148.798 21.4741 149.075 22.0618 149.435 22.541C149.801 23.0202 150.247 23.3833 150.771 23.6304C151.295 23.87 151.887 23.9897 152.545 23.9897C153.189 23.9897 153.717 23.9373 154.129 23.8325C154.541 23.7202 154.866 23.5892 155.106 23.4395C155.353 23.2822 155.544 23.1325 155.679 22.9902V19.7446H152.276V17.6445H158.486ZM170.276 11.8271L165.391 26H162.437L168.592 9.64844H170.478L170.276 11.8271ZM174.364 26L169.467 11.8271L169.254 9.64844H171.152L177.329 26H174.364ZM174.128 19.9355V22.1704H165.234V19.9355H174.128ZM181.459 9.64844H187.243C188.486 9.64844 189.545 9.83561 190.421 10.21C191.297 10.5843 191.967 11.1383 192.432 11.8721C192.903 12.5983 193.139 13.4967 193.139 14.5674C193.139 15.3835 192.989 16.1022 192.69 16.7236C192.39 17.3451 191.967 17.8691 191.421 18.2959C190.874 18.7152 190.223 19.0409 189.467 19.2729L188.613 19.6885H183.413L183.391 17.4536H187.288C187.962 17.4536 188.523 17.3338 188.973 17.0942C189.422 16.8547 189.759 16.529 189.983 16.1172C190.215 15.6979 190.331 15.2262 190.331 14.7021C190.331 14.1331 190.219 13.639 189.995 13.2197C189.777 12.793 189.44 12.4673 188.984 12.2427C188.527 12.0106 187.947 11.8945 187.243 11.8945H184.278V26H181.459V9.64844ZM190.792 26L186.951 18.6553L189.905 18.644L193.802 25.854V26H190.792ZM202.997 26H199.504L199.527 23.7651H202.997C204.008 23.7651 204.854 23.5443 205.535 23.1025C206.224 22.6608 206.741 22.0282 207.085 21.2046C207.437 20.381 207.613 19.4002 207.613 18.2622V17.375C207.613 16.4915 207.512 15.7091 207.31 15.0278C207.115 14.3465 206.823 13.7738 206.434 13.3096C206.052 12.8454 205.58 12.4935 205.019 12.2539C204.465 12.0143 203.824 11.8945 203.098 11.8945H199.437V9.64844H203.098C204.184 9.64844 205.176 9.83187 206.074 10.1987C206.973 10.5581 207.748 11.0785 208.399 11.7598C209.058 12.4411 209.563 13.2572 209.915 14.208C210.267 15.1589 210.443 16.222 210.443 17.3975V18.2622C210.443 19.4377 210.267 20.5008 209.915 21.4517C209.563 22.4025 209.058 23.2186 208.399 23.8999C207.74 24.5737 206.954 25.0941 206.041 25.4609C205.135 25.8203 204.12 26 202.997 26ZM201.066 9.64844V26H198.247V9.64844H201.066ZM226.276 23.7651V26H217.595V23.7651H226.276ZM218.392 9.64844V26H215.573V9.64844H218.392ZM225.141 16.4766V18.6777H217.595V16.4766H225.141ZM226.22 9.64844V11.8945H217.595V9.64844H226.22ZM243.849 9.64844V26H241.03L233.697 14.2866V26H230.878V9.64844H233.697L241.053 21.3843V9.64844H243.849ZM258.11 21.7886C258.11 21.4517 258.057 21.1522 257.952 20.8901C257.855 20.6281 257.679 20.3885 257.425 20.1714C257.17 19.9543 256.811 19.7446 256.346 19.5425C255.89 19.3328 255.306 19.1195 254.594 18.9023C253.816 18.6628 253.097 18.397 252.438 18.105C251.787 17.8055 251.218 17.4611 250.731 17.0718C250.245 16.675 249.866 16.222 249.597 15.7129C249.327 15.1963 249.193 14.6011 249.193 13.9272C249.193 13.2609 249.331 12.6545 249.608 12.1079C249.893 11.5614 250.293 11.0897 250.81 10.6929C251.334 10.2886 251.952 9.97786 252.663 9.76074C253.374 9.53613 254.16 9.42383 255.021 9.42383C256.234 9.42383 257.279 9.64844 258.154 10.0977C259.038 10.5469 259.716 11.1496 260.187 11.9058C260.666 12.6619 260.906 13.4967 260.906 14.4102H258.11C258.11 13.8711 257.994 13.3957 257.761 12.9839C257.537 12.5646 257.192 12.2352 256.728 11.9956C256.272 11.756 255.691 11.6362 254.988 11.6362C254.321 11.6362 253.767 11.7373 253.325 11.9395C252.884 12.1416 252.554 12.4149 252.337 12.7593C252.12 13.1037 252.011 13.493 252.011 13.9272C252.011 14.2342 252.083 14.515 252.225 14.7695C252.367 15.0166 252.584 15.2487 252.876 15.4658C253.168 15.6755 253.535 15.8739 253.977 16.061C254.418 16.2482 254.939 16.4279 255.538 16.6001C256.444 16.8696 257.234 17.1691 257.907 17.4985C258.581 17.8205 259.143 18.1873 259.592 18.5991C260.041 19.0109 260.378 19.4788 260.603 20.0029C260.827 20.5195 260.94 21.1073 260.94 21.7661C260.94 22.4549 260.801 23.0763 260.524 23.6304C260.247 24.1769 259.85 24.6449 259.334 25.0342C258.825 25.416 258.211 25.7118 257.492 25.9214C256.781 26.1235 255.987 26.2246 255.111 26.2246C254.325 26.2246 253.55 26.1198 252.786 25.9102C252.03 25.7005 251.341 25.3823 250.72 24.9556C250.099 24.5213 249.604 23.9823 249.238 23.3384C248.871 22.687 248.687 21.9271 248.687 21.0586H251.506C251.506 21.5902 251.596 22.0431 251.776 22.4175C251.963 22.7918 252.221 23.0988 252.55 23.3384C252.88 23.5705 253.262 23.7427 253.696 23.855C254.138 23.9673 254.609 24.0234 255.111 24.0234C255.77 24.0234 256.32 23.9299 256.762 23.7427C257.211 23.5555 257.548 23.2935 257.773 22.9565C257.997 22.6196 258.11 22.2303 258.11 21.7886Z"/>
</mask>
<path d="M75.8076 9.64844H78.3232L83.0513 22.2603L87.7681 9.64844H90.2837L84.0396 26H82.0405L75.8076 9.64844ZM74.6621 9.64844H77.0542L77.4697 20.5645V26H74.6621V9.64844ZM89.0371 9.64844H91.4404V26H88.6216V20.5645L89.0371 9.64844ZM100.097 9.64844V26H97.278V9.64844H100.097ZM114.503 21.7886C114.503 21.4517 114.451 21.1522 114.346 20.8901C114.249 20.6281 114.073 20.3885 113.818 20.1714C113.564 19.9543 113.204 19.7446 112.74 19.5425C112.283 19.3328 111.699 19.1195 110.988 18.9023C110.21 18.6628 109.491 18.397 108.832 18.105C108.181 17.8055 107.612 17.4611 107.125 17.0718C106.638 16.675 106.26 16.222 105.991 15.7129C105.721 15.1963 105.586 14.6011 105.586 13.9272C105.586 13.2609 105.725 12.6545 106.002 12.1079C106.286 11.5614 106.687 11.0897 107.204 10.6929C107.728 10.2886 108.345 9.97786 109.057 9.76074C109.768 9.53613 110.554 9.42383 111.415 9.42383C112.628 9.42383 113.672 9.64844 114.548 10.0977C115.432 10.5469 116.109 11.1496 116.581 11.9058C117.06 12.6619 117.3 13.4967 117.3 14.4102H114.503C114.503 13.8711 114.387 13.3957 114.155 12.9839C113.931 12.5646 113.586 12.2352 113.122 11.9956C112.665 11.756 112.085 11.6362 111.381 11.6362C110.715 11.6362 110.161 11.7373 109.719 11.9395C109.277 12.1416 108.948 12.4149 108.731 12.7593C108.514 13.1037 108.405 13.493 108.405 13.9272C108.405 14.2342 108.476 14.515 108.619 14.7695C108.761 15.0166 108.978 15.2487 109.27 15.4658C109.562 15.6755 109.929 15.8739 110.371 16.061C110.812 16.2482 111.333 16.4279 111.932 16.6001C112.837 16.8696 113.627 17.1691 114.301 17.4985C114.975 17.8205 115.537 18.1873 115.986 18.5991C116.435 19.0109 116.772 19.4788 116.996 20.0029C117.221 20.5195 117.333 21.1073 117.333 21.7661C117.333 22.4549 117.195 23.0763 116.918 23.6304C116.641 24.1769 116.244 24.6449 115.727 25.0342C115.218 25.416 114.604 25.7118 113.886 25.9214C113.174 26.1235 112.381 26.2246 111.505 26.2246C110.719 26.2246 109.944 26.1198 109.18 25.9102C108.424 25.7005 107.735 25.3823 107.114 24.9556C106.492 24.5213 105.998 23.9823 105.631 23.3384C105.264 22.687 105.081 21.9271 105.081 21.0586H107.9C107.9 21.5902 107.99 22.0431 108.169 22.4175C108.357 22.7918 108.615 23.0988 108.944 23.3384C109.274 23.5705 109.656 23.7427 110.09 23.855C110.531 23.9673 111.003 24.0234 111.505 24.0234C112.164 24.0234 112.714 23.9299 113.156 23.7427C113.605 23.5555 113.942 23.2935 114.166 22.9565C114.391 22.6196 114.503 22.2303 114.503 21.7886ZM128.854 9.64844V26H126.057V9.64844H128.854ZM133.986 9.64844V11.8945H120.97V9.64844H133.986ZM158.486 17.6445V23.8887C158.254 24.1956 157.891 24.5326 157.397 24.8994C156.91 25.2588 156.263 25.5695 155.454 25.8315C154.646 26.0936 153.639 26.2246 152.433 26.2246C151.407 26.2246 150.468 26.0524 149.614 25.708C148.761 25.3561 148.023 24.8433 147.402 24.1694C146.788 23.4956 146.312 22.6758 145.976 21.71C145.639 20.7367 145.47 19.6286 145.47 18.3857V17.2515C145.47 16.0161 145.624 14.9155 145.931 13.9497C146.245 12.9764 146.694 12.1528 147.278 11.479C147.862 10.8052 148.566 10.2961 149.39 9.95166C150.221 9.59977 151.16 9.42383 152.208 9.42383C153.549 9.42383 154.657 9.64844 155.533 10.0977C156.416 10.5394 157.097 11.1533 157.577 11.9395C158.056 12.7256 158.359 13.624 158.486 14.6348H155.724C155.634 14.0658 155.458 13.5566 155.196 13.1074C154.941 12.6582 154.574 12.3063 154.095 12.0518C153.624 11.7897 153.01 11.6587 152.253 11.6587C151.602 11.6587 151.029 11.7822 150.535 12.0293C150.041 12.2764 149.629 12.6395 149.3 13.1187C148.978 13.5978 148.735 14.1818 148.57 14.8706C148.405 15.5594 148.323 16.3455 148.323 17.229V18.3857C148.323 19.2842 148.416 20.0815 148.604 20.7778C148.798 21.4741 149.075 22.0618 149.435 22.541C149.801 23.0202 150.247 23.3833 150.771 23.6304C151.295 23.87 151.887 23.9897 152.545 23.9897C153.189 23.9897 153.717 23.9373 154.129 23.8325C154.541 23.7202 154.866 23.5892 155.106 23.4395C155.353 23.2822 155.544 23.1325 155.679 22.9902V19.7446H152.276V17.6445H158.486ZM170.276 11.8271L165.391 26H162.437L168.592 9.64844H170.478L170.276 11.8271ZM174.364 26L169.467 11.8271L169.254 9.64844H171.152L177.329 26H174.364ZM174.128 19.9355V22.1704H165.234V19.9355H174.128ZM181.459 9.64844H187.243C188.486 9.64844 189.545 9.83561 190.421 10.21C191.297 10.5843 191.967 11.1383 192.432 11.8721C192.903 12.5983 193.139 13.4967 193.139 14.5674C193.139 15.3835 192.989 16.1022 192.69 16.7236C192.39 17.3451 191.967 17.8691 191.421 18.2959C190.874 18.7152 190.223 19.0409 189.467 19.2729L188.613 19.6885H183.413L183.391 17.4536H187.288C187.962 17.4536 188.523 17.3338 188.973 17.0942C189.422 16.8547 189.759 16.529 189.983 16.1172C190.215 15.6979 190.331 15.2262 190.331 14.7021C190.331 14.1331 190.219 13.639 189.995 13.2197C189.777 12.793 189.44 12.4673 188.984 12.2427C188.527 12.0106 187.947 11.8945 187.243 11.8945H184.278V26H181.459V9.64844ZM190.792 26L186.951 18.6553L189.905 18.644L193.802 25.854V26H190.792ZM202.997 26H199.504L199.527 23.7651H202.997C204.008 23.7651 204.854 23.5443 205.535 23.1025C206.224 22.6608 206.741 22.0282 207.085 21.2046C207.437 20.381 207.613 19.4002 207.613 18.2622V17.375C207.613 16.4915 207.512 15.7091 207.31 15.0278C207.115 14.3465 206.823 13.7738 206.434 13.3096C206.052 12.8454 205.58 12.4935 205.019 12.2539C204.465 12.0143 203.824 11.8945 203.098 11.8945H199.437V9.64844H203.098C204.184 9.64844 205.176 9.83187 206.074 10.1987C206.973 10.5581 207.748 11.0785 208.399 11.7598C209.058 12.4411 209.563 13.2572 209.915 14.208C210.267 15.1589 210.443 16.222 210.443 17.3975V18.2622C210.443 19.4377 210.267 20.5008 209.915 21.4517C209.563 22.4025 209.058 23.2186 208.399 23.8999C207.74 24.5737 206.954 25.0941 206.041 25.4609C205.135 25.8203 204.12 26 202.997 26ZM201.066 9.64844V26H198.247V9.64844H201.066ZM226.276 23.7651V26H217.595V23.7651H226.276ZM218.392 9.64844V26H215.573V9.64844H218.392ZM225.141 16.4766V18.6777H217.595V16.4766H225.141ZM226.22 9.64844V11.8945H217.595V9.64844H226.22ZM243.849 9.64844V26H241.03L233.697 14.2866V26H230.878V9.64844H233.697L241.053 21.3843V9.64844H243.849ZM258.11 21.7886C258.11 21.4517 258.057 21.1522 257.952 20.8901C257.855 20.6281 257.679 20.3885 257.425 20.1714C257.17 19.9543 256.811 19.7446 256.346 19.5425C255.89 19.3328 255.306 19.1195 254.594 18.9023C253.816 18.6628 253.097 18.397 252.438 18.105C251.787 17.8055 251.218 17.4611 250.731 17.0718C250.245 16.675 249.866 16.222 249.597 15.7129C249.327 15.1963 249.193 14.6011 249.193 13.9272C249.193 13.2609 249.331 12.6545 249.608 12.1079C249.893 11.5614 250.293 11.0897 250.81 10.6929C251.334 10.2886 251.952 9.97786 252.663 9.76074C253.374 9.53613 254.16 9.42383 255.021 9.42383C256.234 9.42383 257.279 9.64844 258.154 10.0977C259.038 10.5469 259.716 11.1496 260.187 11.9058C260.666 12.6619 260.906 13.4967 260.906 14.4102H258.11C258.11 13.8711 257.994 13.3957 257.761 12.9839C257.537 12.5646 257.192 12.2352 256.728 11.9956C256.272 11.756 255.691 11.6362 254.988 11.6362C254.321 11.6362 253.767 11.7373 253.325 11.9395C252.884 12.1416 252.554 12.4149 252.337 12.7593C252.12 13.1037 252.011 13.493 252.011 13.9272C252.011 14.2342 252.083 14.515 252.225 14.7695C252.367 15.0166 252.584 15.2487 252.876 15.4658C253.168 15.6755 253.535 15.8739 253.977 16.061C254.418 16.2482 254.939 16.4279 255.538 16.6001C256.444 16.8696 257.234 17.1691 257.907 17.4985C258.581 17.8205 259.143 18.1873 259.592 18.5991C260.041 19.0109 260.378 19.4788 260.603 20.0029C260.827 20.5195 260.94 21.1073 260.94 21.7661C260.94 22.4549 260.801 23.0763 260.524 23.6304C260.247 24.1769 259.85 24.6449 259.334 25.0342C258.825 25.416 258.211 25.7118 257.492 25.9214C256.781 26.1235 255.987 26.2246 255.111 26.2246C254.325 26.2246 253.55 26.1198 252.786 25.9102C252.03 25.7005 251.341 25.3823 250.72 24.9556C250.099 24.5213 249.604 23.9823 249.238 23.3384C248.871 22.687 248.687 21.9271 248.687 21.0586H251.506C251.506 21.5902 251.596 22.0431 251.776 22.4175C251.963 22.7918 252.221 23.0988 252.55 23.3384C252.88 23.5705 253.262 23.7427 253.696 23.855C254.138 23.9673 254.609 24.0234 255.111 24.0234C255.77 24.0234 256.32 23.9299 256.762 23.7427C257.211 23.5555 257.548 23.2935 257.773 22.9565C257.997 22.6196 258.11 22.2303 258.11 21.7886Z" fill="#343D33"/>
<path d="M75.8076 9.64844V8.64844H74.3562L74.8732 10.0046L75.8076 9.64844ZM78.3232 9.64844L79.2596 9.29741L79.0163 8.64844H78.3232V9.64844ZM83.0513 22.2603L82.1149 22.6113L83.0524 25.112L83.9879 22.6106L83.0513 22.2603ZM87.7681 9.64844V8.64844H87.0744L86.8314 9.29814L87.7681 9.64844ZM90.2837 9.64844L91.2179 10.0052L91.736 8.64844H90.2837V9.64844ZM84.0396 26V27H84.7281L84.9738 26.3567L84.0396 26ZM82.0405 26L81.1061 26.3562L81.3515 27H82.0405V26ZM74.6621 9.64844V8.64844H73.6621V9.64844H74.6621ZM77.0542 9.64844L78.0535 9.6104L78.0169 8.64844H77.0542V9.64844ZM77.4697 20.5645H78.4697V20.5454L78.469 20.5264L77.4697 20.5645ZM77.4697 26V27H78.4697V26H77.4697ZM74.6621 26H73.6621V27H74.6621V26ZM89.0371 9.64844V8.64844H88.0745L88.0378 9.6104L89.0371 9.64844ZM91.4404 9.64844H92.4404V8.64844H91.4404V9.64844ZM91.4404 26V27H92.4404V26H91.4404ZM88.6216 26H87.6216V27H88.6216V26ZM88.6216 20.5645L87.6223 20.5264L87.6216 20.5454V20.5645H88.6216ZM75.8076 9.64844V10.6484H78.3232V9.64844V8.64844H75.8076V9.64844ZM78.3232 9.64844L77.3869 9.99947L82.1149 22.6113L83.0513 22.2603L83.9876 21.9092L79.2596 9.29741L78.3232 9.64844ZM83.0513 22.2603L83.9879 22.6106L88.7047 9.99874L87.7681 9.64844L86.8314 9.29814L82.1146 21.91L83.0513 22.2603ZM87.7681 9.64844V10.6484H90.2837V9.64844V8.64844H87.7681V9.64844ZM90.2837 9.64844L89.3495 9.2917L83.1053 25.6433L84.0396 26L84.9738 26.3567L91.2179 10.0052L90.2837 9.64844ZM84.0396 26V25H82.0405V26V27H84.0396V26ZM82.0405 26L82.9749 25.6438L76.742 9.29226L75.8076 9.64844L74.8732 10.0046L81.1061 26.3562L82.0405 26ZM74.6621 9.64844V10.6484H77.0542V9.64844V8.64844H74.6621V9.64844ZM77.0542 9.64844L76.0549 9.68648L76.4705 20.6025L77.4697 20.5645L78.469 20.5264L78.0535 9.6104L77.0542 9.64844ZM77.4697 20.5645H76.4697V26H77.4697H78.4697V20.5645H77.4697ZM77.4697 26V25H74.6621V26V27H77.4697V26ZM74.6621 26H75.6621V9.64844H74.6621H73.6621V26H74.6621ZM89.0371 9.64844V10.6484H91.4404V9.64844V8.64844H89.0371V9.64844ZM91.4404 9.64844H90.4404V26H91.4404H92.4404V9.64844H91.4404ZM91.4404 26V25H88.6216V26V27H91.4404V26ZM88.6216 26H89.6216V20.5645H88.6216H87.6216V26H88.6216ZM88.6216 20.5645L89.6209 20.6025L90.0364 9.68648L89.0371 9.64844L88.0378 9.6104L87.6223 20.5264L88.6216 20.5645ZM100.097 9.64844H101.097V8.64844H100.097V9.64844ZM100.097 26V27H101.097V26H100.097ZM97.278 26H96.278V27H97.278V26ZM97.278 9.64844V8.64844H96.278V9.64844H97.278ZM100.097 9.64844H99.0969V26H100.097H101.097V9.64844H100.097ZM100.097 26V25H97.278V26V27H100.097V26ZM97.278 26H98.278V9.64844H97.278H96.278V26H97.278ZM97.278 9.64844V10.6484H100.097V9.64844V8.64844H97.278V9.64844ZM114.346 20.8901L113.409 21.2383L113.413 21.25L113.418 21.2615L114.346 20.8901ZM113.818 20.1714L113.169 20.9322L113.818 20.1714ZM112.74 19.5425L112.323 20.4513L112.332 20.4554L112.341 20.4593L112.74 19.5425ZM110.988 18.9023L110.694 19.8581L110.696 19.8588L110.988 18.9023ZM108.832 18.105L108.414 19.0136L108.427 19.0192L108.832 18.105ZM107.125 17.0718L106.493 17.8468L106.5 17.8526L107.125 17.0718ZM105.991 15.7129L105.104 16.1755L105.107 16.1808L105.991 15.7129ZM106.002 12.1079L105.115 11.6461L105.11 11.6558L106.002 12.1079ZM107.204 10.6929L107.813 11.4859L107.814 11.4847L107.204 10.6929ZM109.057 9.76074L109.349 10.7172L109.358 10.7143L109.057 9.76074ZM114.548 10.0977L114.092 10.9875L114.095 10.989L114.548 10.0977ZM116.581 11.9058L115.732 12.435L115.736 12.441L116.581 11.9058ZM117.3 14.4102V15.4102H118.3V14.4102H117.3ZM114.503 14.4102H113.503V15.4102H114.503V14.4102ZM114.155 12.9839L113.274 13.4561L113.279 13.4656L113.284 13.4749L114.155 12.9839ZM113.122 11.9956L112.657 12.8812L112.663 12.8842L113.122 11.9956ZM109.719 11.9395L109.303 11.0301L109.719 11.9395ZM108.619 14.7695L107.746 15.2574L107.752 15.2685L108.619 14.7695ZM109.27 15.4658L108.673 16.2683L108.68 16.2733L108.687 16.2781L109.27 15.4658ZM110.371 16.061L109.98 16.9818L110.371 16.061ZM111.932 16.6001L112.217 15.6416L112.208 15.639L111.932 16.6001ZM114.301 17.4985L113.862 18.397L113.87 18.4008L114.301 17.4985ZM116.996 20.0029L116.077 20.3969L116.079 20.4017L116.996 20.0029ZM116.918 23.6304L117.81 24.0825L117.812 24.0776L116.918 23.6304ZM115.727 25.0342L116.327 25.8342L116.329 25.8328L115.727 25.0342ZM113.886 25.9214L114.159 26.8833L114.166 26.8814L113.886 25.9214ZM109.18 25.9102L108.913 26.8738L108.915 26.8745L109.18 25.9102ZM107.114 24.9556L106.541 25.7753L106.548 25.7799L107.114 24.9556ZM105.631 23.3384L104.76 23.8291L104.762 23.8334L105.631 23.3384ZM105.081 21.0586V20.0586H104.081V21.0586H105.081ZM107.9 21.0586H108.9V20.0586H107.9V21.0586ZM108.169 22.4175L107.268 22.8502L107.271 22.8575L107.275 22.8647L108.169 22.4175ZM108.944 23.3384L108.356 24.1471L108.362 24.1515L108.368 24.1559L108.944 23.3384ZM110.09 23.855L109.839 24.8231L109.843 24.8241L110.09 23.855ZM113.156 23.7427L112.771 22.8196L112.766 22.8219L113.156 23.7427ZM114.503 21.7886H115.503C115.503 21.3486 115.435 20.9194 115.275 20.5187L114.346 20.8901L113.418 21.2615C113.467 21.385 113.503 21.5548 113.503 21.7886H114.503ZM114.346 20.8901L115.284 20.542C115.116 20.0913 114.826 19.7166 114.467 19.4106L113.818 20.1714L113.169 20.9322C113.32 21.0604 113.381 21.1649 113.409 21.2383L114.346 20.8901ZM113.818 20.1714L114.467 19.4106C114.11 19.1055 113.653 18.8492 113.139 18.6256L112.74 19.5425L112.341 20.4593C112.756 20.6401 113.018 20.803 113.169 20.9322L113.818 20.1714ZM112.74 19.5425L113.157 18.6337C112.646 18.3988 112.016 18.1705 111.28 17.9459L110.988 18.9023L110.696 19.8588C111.383 20.0684 111.921 20.2669 112.323 20.4513L112.74 19.5425ZM110.988 18.9023L111.282 17.9466C110.537 17.7171 109.855 17.4648 109.237 17.1907L108.832 18.105L108.427 19.0192C109.126 19.3292 109.882 19.6084 110.694 19.8581L110.988 18.9023ZM108.832 18.105L109.25 17.1964C108.661 16.9259 108.164 16.6225 107.75 16.2909L107.125 17.0718L106.5 17.8526C107.059 18.2997 107.7 18.6851 108.414 19.0136L108.832 18.105ZM107.125 17.0718L107.757 16.2968C107.364 15.9768 107.076 15.6257 106.874 15.245L105.991 15.7129L105.107 16.1808C105.444 16.8183 105.912 17.3731 106.493 17.8468L107.125 17.0718ZM105.991 15.7129L106.877 15.2503C106.693 14.8974 106.586 14.4653 106.586 13.9272H105.586H104.586C104.586 14.7369 104.749 15.4952 105.104 16.1755L105.991 15.7129ZM105.586 13.9272H106.586C106.586 13.404 106.694 12.9544 106.894 12.56L106.002 12.1079L105.11 11.6558C104.756 12.3545 104.586 13.1178 104.586 13.9272H105.586ZM106.002 12.1079L106.889 12.5696C107.102 12.1598 107.405 11.7991 107.813 11.4859L107.204 10.6929L106.594 9.89982C105.969 10.3803 105.471 10.9629 105.115 11.6462L106.002 12.1079ZM107.204 10.6929L107.814 11.4847C108.232 11.1625 108.738 10.9034 109.349 10.7172L109.057 9.76074L108.765 8.80431C107.952 9.05232 107.223 9.41461 106.593 9.90109L107.204 10.6929ZM109.057 9.76074L109.358 10.7143C109.958 10.5248 110.641 10.4238 111.415 10.4238V9.42383V8.42383C110.467 8.42383 109.578 8.54746 108.755 8.80716L109.057 9.76074ZM111.415 9.42383V10.4238C112.505 10.4238 113.386 10.6256 114.092 10.9875L114.548 10.0977L115.005 9.20784C113.958 8.67131 112.75 8.42383 111.415 8.42383V9.42383ZM114.548 10.0977L114.095 10.989C114.835 11.3653 115.368 11.8501 115.732 12.435L116.581 11.9058L117.429 11.3765C116.851 10.449 116.029 9.72848 115.001 9.20627L114.548 10.0977ZM116.581 11.9058L115.736 12.441C116.112 13.0337 116.3 13.6822 116.3 14.4102H117.3H118.3C118.3 13.3113 118.008 12.2902 117.426 11.3705L116.581 11.9058ZM117.3 14.4102V13.4102H114.503V14.4102V15.4102H117.3V14.4102ZM114.503 14.4102H115.503C115.503 13.7236 115.354 13.0745 115.026 12.4929L114.155 12.9839L113.284 13.4749C113.42 13.7168 113.503 14.0186 113.503 14.4102H114.503ZM114.155 12.9839L115.037 12.5117C114.707 11.8965 114.206 11.4299 113.581 11.107L113.122 11.9956L112.663 12.8842C112.966 13.0405 113.154 13.2327 113.274 13.4561L114.155 12.9839ZM113.122 11.9956L113.587 11.1101C112.944 10.7729 112.191 10.6362 111.381 10.6362V11.6362V12.6362C111.979 12.6362 112.387 12.7391 112.657 12.8812L113.122 11.9956ZM111.381 11.6362V10.6362C110.622 10.6362 109.914 10.7504 109.303 11.0301L109.719 11.9395L110.135 12.8488C110.407 12.7242 110.808 12.6362 111.381 12.6362V11.6362ZM109.719 11.9395L109.303 11.0301C108.719 11.2973 108.224 11.6876 107.885 12.226L108.731 12.7593L109.577 13.2926C109.672 13.1421 109.836 12.9859 110.135 12.8488L109.719 11.9395ZM108.731 12.7593L107.885 12.226C107.56 12.7408 107.405 13.3174 107.405 13.9272H108.405H109.405C109.405 13.6686 109.467 13.4666 109.577 13.2926L108.731 12.7593ZM108.405 13.9272H107.405C107.405 14.3957 107.516 14.8458 107.746 15.2574L108.619 14.7695L109.491 14.2817C109.437 14.1842 109.405 14.0727 109.405 13.9272H108.405ZM108.619 14.7695L107.752 15.2685C107.979 15.662 108.301 15.9912 108.673 16.2683L109.27 15.4658L109.867 14.6634C109.655 14.5062 109.543 14.3712 109.485 14.2706L108.619 14.7695ZM109.27 15.4658L108.687 16.2781C109.055 16.5426 109.492 16.7747 109.98 16.9818L110.371 16.061L110.761 15.1403C110.366 14.973 110.069 14.8084 109.853 14.6535L109.27 15.4658ZM110.371 16.061L109.98 16.9818C110.468 17.1885 111.028 17.3809 111.655 17.5612L111.932 16.6001L112.208 15.639C111.637 15.4749 111.156 15.3079 110.761 15.1403L110.371 16.061ZM111.932 16.6001L111.646 17.5586C112.512 17.8162 113.249 18.097 113.862 18.3969L114.301 17.4985L114.74 16.6002C114.006 16.2412 113.163 15.923 112.217 15.6416L111.932 16.6001ZM114.301 17.4985L113.87 18.4008C114.474 18.6894 114.948 19.0044 115.31 19.3363L115.986 18.5991L116.661 17.862C116.125 17.3703 115.476 16.9516 114.732 16.5962L114.301 17.4985ZM115.986 18.5991L115.31 19.3363C115.662 19.6589 115.912 20.012 116.077 20.3968L116.996 20.0029L117.916 19.609C117.631 18.9457 117.208 18.3629 116.661 17.862L115.986 18.5991ZM116.996 20.0029L116.079 20.4017C116.241 20.7729 116.333 21.2214 116.333 21.7661H117.333H118.333C118.333 20.9931 118.201 20.2661 117.914 19.6042L116.996 20.0029ZM117.333 21.7661H116.333C116.333 22.3173 116.224 22.7829 116.023 23.1832L116.918 23.6304L117.812 24.0776C118.166 23.3698 118.333 22.5926 118.333 21.7661H117.333ZM116.918 23.6304L116.026 23.1783C115.822 23.5811 115.527 23.9329 115.126 24.2356L115.727 25.0342L116.329 25.8328C116.961 25.3569 117.46 24.7727 117.81 24.0825L116.918 23.6304ZM115.727 25.0342L115.127 24.2342C114.73 24.5324 114.229 24.7796 113.606 24.9614L113.886 25.9214L114.166 26.8814C114.98 26.6439 115.707 26.2997 116.327 25.8342L115.727 25.0342ZM113.886 25.9214L113.612 24.9595C113.005 25.1322 112.305 25.2246 111.505 25.2246V26.2246V27.2246C112.457 27.2246 113.344 27.1149 114.159 26.8833L113.886 25.9214ZM111.505 26.2246V25.2246C110.809 25.2246 110.123 25.132 109.445 24.9458L109.18 25.9102L108.915 26.8745C109.765 27.1076 110.629 27.2246 111.505 27.2246V26.2246ZM109.18 25.9102L109.447 24.9465C108.793 24.7652 108.206 24.4928 107.68 24.1312L107.114 24.9556L106.548 25.7799C107.264 26.2719 108.054 26.6358 108.913 26.8738L109.18 25.9102ZM107.114 24.9556L107.686 24.1359C107.184 23.7845 106.792 23.3554 106.5 22.8433L105.631 23.3384L104.762 23.8334C105.204 24.6092 105.801 25.2581 106.541 25.7753L107.114 24.9556ZM105.631 23.3384L106.503 22.8476C106.233 22.3688 106.081 21.7832 106.081 21.0586H105.081H104.081C104.081 22.071 104.296 23.0053 104.76 23.8291L105.631 23.3384ZM105.081 21.0586V22.0586H107.9V21.0586V20.0586H105.081V21.0586ZM107.9 21.0586H106.9C106.9 21.6994 107.008 22.3085 107.268 22.8502L108.169 22.4175L109.071 21.9847C108.972 21.7778 108.9 21.4809 108.9 21.0586H107.9ZM108.169 22.4175L107.275 22.8647C107.532 23.3783 107.893 23.8106 108.356 24.1471L108.944 23.3384L109.532 22.5296C109.336 22.3869 109.181 22.2054 109.064 21.9703L108.169 22.4175ZM108.944 23.3384L108.368 24.1559C108.807 24.4648 109.302 24.684 109.839 24.8231L110.09 23.855L110.34 22.8868C110.009 22.8013 109.741 22.6761 109.52 22.5209L108.944 23.3384ZM110.09 23.855L109.843 24.8241C110.373 24.9589 110.928 25.0234 111.505 25.0234V24.0234V23.0234C111.078 23.0234 110.69 22.9757 110.336 22.8858L110.09 23.855ZM111.505 24.0234V25.0234C112.251 25.0234 112.944 24.9185 113.546 24.6634L113.156 23.7427L112.766 22.8219C112.484 22.9412 112.076 23.0234 111.505 23.0234V24.0234ZM113.156 23.7427L113.54 24.6658C114.134 24.4182 114.644 24.0431 114.998 23.5112L114.166 22.9565L113.334 22.4018C113.24 22.5438 113.075 22.6928 112.771 22.8196L113.156 23.7427ZM114.166 22.9565L114.998 23.5112C115.343 22.9951 115.503 22.409 115.503 21.7886H114.503H113.503C113.503 22.0516 113.44 22.2441 113.334 22.4018L114.166 22.9565ZM128.854 9.64844H129.854V8.64844H128.854V9.64844ZM128.854 26V27H129.854V26H128.854ZM126.057 26H125.057V27H126.057V26ZM126.057 9.64844V8.64844H125.057V9.64844H126.057ZM133.986 9.64844H134.986V8.64844H133.986V9.64844ZM133.986 11.8945V12.8945H134.986V11.8945H133.986ZM120.97 11.8945H119.97V12.8945H120.97V11.8945ZM120.97 9.64844V8.64844H119.97V9.64844H120.97ZM128.854 9.64844H127.854V26H128.854H129.854V9.64844H128.854ZM128.854 26V25H126.057V26V27H128.854V26ZM126.057 26H127.057V9.64844H126.057H125.057V26H126.057ZM126.057 9.64844V10.6484H128.854V9.64844V8.64844H126.057V9.64844ZM133.986 9.64844H132.986V11.8945H133.986H134.986V9.64844H133.986ZM133.986 11.8945V10.8945H120.97V11.8945V12.8945H133.986V11.8945ZM120.97 11.8945H121.97V9.64844H120.97H119.97V11.8945H120.97ZM120.97 9.64844V10.6484H133.986V9.64844V8.64844H120.97V9.64844ZM158.486 17.6445H159.486V16.6445H158.486V17.6445ZM158.486 23.8887L159.284 24.4918L159.486 24.2242V23.8887H158.486ZM157.397 24.8994L157.991 25.7038L157.993 25.7023L157.397 24.8994ZM149.614 25.708L149.233 26.6325L149.24 26.6354L149.614 25.708ZM147.402 24.1694L146.663 24.8429L146.667 24.8474L147.402 24.1694ZM145.976 21.71L145.031 22.0371L145.031 22.0393L145.976 21.71ZM145.931 13.9497L144.979 13.6423L144.978 13.6468L145.931 13.9497ZM149.39 9.95166L149.775 10.8742L149.78 10.8725L149.39 9.95166ZM155.533 10.0977L155.076 10.9875L155.086 10.9921L155.533 10.0977ZM158.486 14.6348V15.6348H159.62L159.478 14.5098L158.486 14.6348ZM155.724 14.6348L154.736 14.7907L154.869 15.6348H155.724V14.6348ZM155.196 13.1074L154.326 13.6005L154.332 13.6113L155.196 13.1074ZM154.095 12.0518L153.61 12.9259L153.618 12.9305L153.626 12.9349L154.095 12.0518ZM149.3 13.1187L148.476 12.5521L148.47 12.561L149.3 13.1187ZM148.57 14.8706L147.597 14.638L148.57 14.8706ZM148.604 20.7778L147.638 21.0374L147.64 21.0471L148.604 20.7778ZM149.435 22.541L148.635 23.141L148.641 23.1489L149.435 22.541ZM150.771 23.6304L150.345 24.535L150.355 24.5398L150.771 23.6304ZM154.129 23.8325L154.376 24.8016L154.384 24.7995L154.392 24.7973L154.129 23.8325ZM155.106 23.4395L155.636 24.2875L155.643 24.2831L155.106 23.4395ZM155.679 22.9902L156.405 23.678L156.679 23.3887V22.9902H155.679ZM155.679 19.7446H156.679V18.7446H155.679V19.7446ZM152.276 19.7446H151.276V20.7446H152.276V19.7446ZM152.276 17.6445V16.6445H151.276V17.6445H152.276ZM158.486 17.6445H157.486V23.8887H158.486H159.486V17.6445H158.486ZM158.486 23.8887L157.689 23.2856C157.538 23.4853 157.259 23.7567 156.801 24.0965L157.397 24.8994L157.993 25.7023C158.524 25.3084 158.971 24.906 159.284 24.4918L158.486 23.8887ZM157.397 24.8994L156.803 24.095C156.43 24.3702 155.89 24.6391 155.146 24.8803L155.454 25.8315L155.762 26.7828C156.635 26.4999 157.39 26.1474 157.991 25.7038L157.397 24.8994ZM155.454 25.8315L155.146 24.8803C154.469 25.0996 153.574 25.2246 152.433 25.2246V26.2246V27.2246C153.703 27.2246 154.822 27.0875 155.762 26.7828L155.454 25.8315ZM152.433 26.2246V25.2246C151.521 25.2246 150.71 25.0719 149.988 24.7807L149.614 25.708L149.24 26.6354C150.225 27.0329 151.294 27.2246 152.433 27.2246V26.2246ZM149.614 25.708L149.995 24.7835C149.275 24.4867 148.659 24.0576 148.137 23.4915L147.402 24.1694L146.667 24.8474C147.388 25.629 148.246 26.2256 149.233 26.6325L149.614 25.708ZM147.402 24.1694L148.141 23.4959C147.628 22.9333 147.218 22.2346 146.92 21.3806L145.976 21.71L145.031 22.0393C145.407 23.117 145.947 24.0579 146.663 24.8429L147.402 24.1694ZM145.976 21.71L146.921 21.3829C146.627 20.5339 146.47 19.5395 146.47 18.3857H145.47H144.47C144.47 19.7176 144.651 20.9394 145.031 22.0371L145.976 21.71ZM145.47 18.3857H146.47V17.2515H145.47H144.47V18.3857H145.47ZM145.47 17.2515H146.47C146.47 16.0972 146.614 15.1018 146.884 14.2526L145.931 13.9497L144.978 13.6468C144.634 14.7293 144.47 15.935 144.47 17.2515H145.47ZM145.931 13.9497L146.882 14.2571C147.161 13.393 147.55 12.6924 148.034 12.1339L147.278 11.479L146.523 10.8241C145.839 11.6133 145.329 12.5598 144.979 13.6423L145.931 13.9497ZM147.278 11.479L148.034 12.1339C148.517 11.5768 149.094 11.1592 149.775 10.8742L149.39 9.95166L149.004 9.02908C148.038 9.43291 147.208 10.0336 146.523 10.8241L147.278 11.479ZM149.39 9.95166L149.78 10.8725C150.469 10.5806 151.273 10.4238 152.208 10.4238V9.42383V8.42383C151.048 8.42383 149.972 8.61895 149 9.03081L149.39 9.95166ZM152.208 9.42383V10.4238C153.444 10.4238 154.383 10.632 155.076 10.9875L155.533 10.0977L155.989 9.20784C154.93 8.66486 153.653 8.42383 152.208 8.42383V9.42383ZM155.533 10.0977L155.086 10.9921C155.814 11.3562 156.349 11.8459 156.723 12.4599L157.577 11.9395L158.431 11.419C157.846 10.4607 157.019 9.72257 155.98 9.20323L155.533 10.0977ZM157.577 11.9395L156.723 12.4599C157.121 13.1132 157.383 13.8741 157.494 14.7597L158.486 14.6348L159.478 14.5098C159.335 13.374 158.991 12.338 158.431 11.419L157.577 11.9395ZM158.486 14.6348V13.6348H155.724V14.6348V15.6348H158.486V14.6348ZM155.724 14.6348L156.711 14.4788C156.604 13.8003 156.391 13.171 156.06 12.6036L155.196 13.1074L154.332 13.6113C154.525 13.9423 154.663 14.3312 154.736 14.7907L155.724 14.6348ZM155.196 13.1074L156.066 12.6144C155.713 11.9911 155.203 11.5077 154.564 11.1686L154.095 12.0518L153.626 12.9349C153.946 13.1049 154.17 13.3254 154.326 13.6004L155.196 13.1074ZM154.095 12.0518L154.581 11.1776C153.913 10.8065 153.115 10.6587 152.253 10.6587V11.6587V12.6587C152.904 12.6587 153.334 12.7729 153.61 12.9259L154.095 12.0518ZM152.253 11.6587V10.6587C151.474 10.6587 150.744 10.807 150.088 11.1349L150.535 12.0293L150.982 12.9237C151.315 12.7575 151.73 12.6587 152.253 12.6587V11.6587ZM150.535 12.0293L150.088 11.1349C149.434 11.4616 148.896 11.9411 148.476 12.5521L149.3 13.1187L150.124 13.6852C150.363 13.3378 150.648 13.0911 150.982 12.9237L150.535 12.0293ZM149.3 13.1187L148.47 12.561C148.068 13.1587 147.784 13.8587 147.597 14.638L148.57 14.8706L149.542 15.1032C149.685 14.5049 149.888 14.0369 150.13 13.6763L149.3 13.1187ZM148.57 14.8706L147.597 14.638C147.41 15.419 147.323 16.2856 147.323 17.229H148.323H149.323C149.323 16.4055 149.4 15.6998 149.542 15.1032L148.57 14.8706ZM148.323 17.229H147.323V18.3857H148.323H149.323V17.229H148.323ZM148.323 18.3857H147.323C147.323 19.3513 147.423 20.2387 147.638 21.0374L148.604 20.7778L149.569 20.5182C149.41 19.9244 149.323 19.217 149.323 18.3857H148.323ZM148.604 20.7778L147.64 21.0471C147.862 21.8387 148.187 22.5445 148.635 23.141L149.435 22.541L150.235 21.941C149.963 21.5792 149.735 21.1095 149.567 20.5086L148.604 20.7778ZM149.435 22.541L148.641 23.1489C149.1 23.7495 149.67 24.2169 150.345 24.5349L150.771 23.6304L151.197 22.7258C150.824 22.5497 150.503 22.2909 150.229 21.9331L149.435 22.541ZM150.771 23.6304L150.355 24.5398C151.027 24.8471 151.764 24.9897 152.545 24.9897V23.9897V22.9897C152.009 22.9897 151.563 22.8928 151.187 22.7209L150.771 23.6304ZM152.545 23.9897V24.9897C153.234 24.9897 153.853 24.9346 154.376 24.8016L154.129 23.8325L153.882 22.8634C153.581 22.9401 153.144 22.9897 152.545 22.9897V23.9897ZM154.129 23.8325L154.392 24.7973C154.855 24.671 155.283 24.5081 155.636 24.2875L155.106 23.4395L154.576 22.5915C154.45 22.6702 154.226 22.7694 153.866 22.8678L154.129 23.8325ZM155.106 23.4395L155.643 24.2831C155.929 24.1013 156.193 23.9013 156.405 23.678L155.679 22.9902L154.953 22.3025C154.895 22.3637 154.777 22.4632 154.569 22.5958L155.106 23.4395ZM155.679 22.9902H156.679V19.7446H155.679H154.679V22.9902H155.679ZM155.679 19.7446V18.7446H152.276V19.7446V20.7446H155.679V19.7446ZM152.276 19.7446H153.276V17.6445H152.276H151.276V19.7446H152.276ZM152.276 17.6445V18.6445H158.486V17.6445V16.6445H152.276V17.6445ZM170.276 11.8271L171.221 12.153L171.261 12.0393L171.272 11.9195L170.276 11.8271ZM165.391 26V27H166.104L166.336 26.3259L165.391 26ZM162.437 26L161.501 25.6477L160.992 27H162.437V26ZM168.592 9.64844V8.64844H167.899L167.656 9.29619L168.592 9.64844ZM170.478 9.64844L171.474 9.74082L171.575 8.64844H170.478V9.64844ZM174.364 26L173.419 26.3265L173.651 27H174.364V26ZM169.467 11.8271L168.472 11.9246L168.484 12.0421L168.522 12.1537L169.467 11.8271ZM169.254 9.64844V8.64844H168.151L168.259 9.74591L169.254 9.64844ZM171.152 9.64844L172.088 9.29506L171.843 8.64844H171.152V9.64844ZM177.329 26V27H178.776L178.264 25.6466L177.329 26ZM174.128 19.9355H175.128V18.9355H174.128V19.9355ZM174.128 22.1704V23.1704H175.128V22.1704H174.128ZM165.234 22.1704H164.234V23.1704H165.234V22.1704ZM165.234 19.9355V18.9355H164.234V19.9355H165.234ZM170.276 11.8271L169.331 11.5013L164.445 25.6741L165.391 26L166.336 26.3259L171.221 12.153L170.276 11.8271ZM165.391 26V25H162.437V26V27H165.391V26ZM162.437 26L163.373 26.3523L169.527 10.0007L168.592 9.64844L167.656 9.29619L161.501 25.6477L162.437 26ZM168.592 9.64844V10.6484H170.478V9.64844V8.64844H168.592V9.64844ZM170.478 9.64844L169.483 9.55605L169.28 11.7348L170.276 11.8271L171.272 11.9195L171.474 9.74082L170.478 9.64844ZM174.364 26L175.309 25.6735L170.413 11.5006L169.467 11.8271L168.522 12.1537L173.419 26.3265L174.364 26ZM169.467 11.8271L170.463 11.7297L170.249 9.55097L169.254 9.64844L168.259 9.74591L168.472 11.9246L169.467 11.8271ZM169.254 9.64844V10.6484H171.152V9.64844V8.64844H169.254V9.64844ZM171.152 9.64844L170.217 10.0018L176.393 26.3534L177.329 26L178.264 25.6466L172.088 9.29506L171.152 9.64844ZM177.329 26V25H174.364V26V27H177.329V26ZM174.128 19.9355H173.128V22.1704H174.128H175.128V19.9355H174.128ZM174.128 22.1704V21.1704H165.234V22.1704V23.1704H174.128V22.1704ZM165.234 22.1704H166.234V19.9355H165.234H164.234V22.1704H165.234ZM165.234 19.9355V20.9355H174.128V19.9355V18.9355H165.234V19.9355ZM181.459 9.64844V8.64844H180.459V9.64844H181.459ZM192.432 11.8721L191.586 12.4068L191.593 12.4168L192.432 11.8721ZM191.421 18.2959L192.029 19.0894L192.036 19.0841L191.421 18.2959ZM189.467 19.2729L189.173 18.317L189.099 18.3398L189.029 18.3738L189.467 19.2729ZM188.613 19.6885V20.6885H188.844L189.051 20.5876L188.613 19.6885ZM183.413 19.6885L182.414 19.6985L182.423 20.6885H183.413V19.6885ZM183.391 17.4536V16.4536H182.381L182.391 17.4637L183.391 17.4536ZM189.983 16.1172L189.108 15.6329L189.105 15.6383L189.983 16.1172ZM189.995 13.2197L189.103 13.6732L189.108 13.6826L189.113 13.6919L189.995 13.2197ZM188.984 12.2427L188.531 13.1342L188.542 13.14L188.984 12.2427ZM184.278 11.8945V10.8945H183.278V11.8945H184.278ZM184.278 26V27H185.278V26H184.278ZM181.459 26H180.459V27H181.459V26ZM190.792 26L189.906 26.4634L190.186 27H190.792V26ZM186.951 18.6553L186.947 17.6553L185.303 17.6615L186.065 19.1187L186.951 18.6553ZM189.905 18.644L190.784 18.1686L190.5 17.6418L189.901 17.6441L189.905 18.644ZM193.802 25.854H194.802V25.601L194.681 25.3785L193.802 25.854ZM193.802 26V27H194.802V26H193.802ZM181.459 9.64844V10.6484H187.243V9.64844V8.64844H181.459V9.64844ZM187.243 9.64844V10.6484C188.39 10.6484 189.308 10.8218 190.028 11.1295L190.421 10.21L190.814 9.29041C189.782 8.84947 188.582 8.64844 187.243 8.64844V9.64844ZM190.421 10.21L190.028 11.1295C190.737 11.4324 191.241 11.8607 191.586 12.4067L192.432 11.8721L193.277 11.3374C192.694 10.416 191.858 9.73624 190.814 9.29041L190.421 10.21ZM192.432 11.8721L191.593 12.4168C191.937 12.9463 192.139 13.6443 192.139 14.5674H193.139H194.139C194.139 13.3492 193.87 12.2503 193.27 11.3274L192.432 11.8721ZM193.139 14.5674H192.139C192.139 15.2604 192.012 15.8261 191.789 16.2895L192.69 16.7236L193.591 17.1578C193.966 16.3783 194.139 15.5065 194.139 14.5674H193.139ZM192.69 16.7236L191.789 16.2895C191.557 16.7718 191.232 17.175 190.805 17.5077L191.421 18.2959L192.036 19.0841C192.703 18.5633 193.224 17.9183 193.591 17.1578L192.69 16.7236ZM191.421 18.2959L190.812 17.5025C190.373 17.8393 189.832 18.1147 189.173 18.317L189.467 19.2729L189.76 20.2289C190.614 19.967 191.375 19.591 192.029 19.0893L191.421 18.2959ZM189.467 19.2729L189.029 18.3738L188.175 18.7894L188.613 19.6885L189.051 20.5876L189.904 20.1721L189.467 19.2729ZM188.613 19.6885V18.6885H183.413V19.6885V20.6885H188.613V19.6885ZM183.413 19.6885L184.413 19.6784L184.391 17.4436L183.391 17.4536L182.391 17.4637L182.414 19.6985L183.413 19.6885ZM183.391 17.4536V18.4536H187.288V17.4536V16.4536H183.391V17.4536ZM187.288 17.4536V18.4536C188.075 18.4536 188.81 18.3144 189.443 17.9766L188.973 17.0942L188.502 16.2119C188.237 16.3533 187.849 16.4536 187.288 16.4536V17.4536ZM188.973 17.0942L189.443 17.9766C190.049 17.6533 190.535 17.1939 190.861 16.596L189.983 16.1172L189.105 15.6383C188.982 15.8641 188.794 16.056 188.502 16.2119L188.973 17.0942ZM189.983 16.1172L190.858 16.6015C191.18 16.0204 191.331 15.3794 191.331 14.7021H190.331H189.331C189.331 15.0731 189.251 15.3754 189.108 15.6329L189.983 16.1172ZM190.331 14.7021H191.331C191.331 14.0006 191.192 13.338 190.876 12.7475L189.995 13.2197L189.113 13.6919C189.246 13.94 189.331 14.2657 189.331 14.7021H190.331ZM189.995 13.2197L190.886 12.7663C190.564 12.1343 190.063 11.659 189.425 11.3453L188.984 12.2427L188.542 13.14C188.818 13.2756 188.991 13.4517 189.103 13.6732L189.995 13.2197ZM188.984 12.2427L189.437 11.3512C188.797 11.0262 188.049 10.8945 187.243 10.8945V11.8945V12.8945C187.845 12.8945 188.257 12.995 188.531 13.1342L188.984 12.2427ZM187.243 11.8945V10.8945H184.278V11.8945V12.8945H187.243V11.8945ZM184.278 11.8945H183.278V26H184.278H185.278V11.8945H184.278ZM184.278 26V25H181.459V26V27H184.278V26ZM181.459 26H182.459V9.64844H181.459H180.459V26H181.459ZM190.792 26L191.678 25.5366L187.837 18.1919L186.951 18.6553L186.065 19.1187L189.906 26.4634L190.792 26ZM186.951 18.6553L186.955 19.6553L189.908 19.644L189.905 18.644L189.901 17.6441L186.947 17.6553L186.951 18.6553ZM189.905 18.644L189.025 19.1195L192.922 26.3295L193.802 25.854L194.681 25.3785L190.784 18.1686L189.905 18.644ZM193.802 25.854H192.802V26H193.802H194.802V25.854H193.802ZM193.802 26V25H190.792V26V27H193.802V26ZM199.504 26L198.505 25.99L198.494 27H199.504V26ZM199.527 23.7651V22.7651H198.537L198.527 23.7551L199.527 23.7651ZM205.535 23.1025L204.995 22.2608L204.991 22.2635L205.535 23.1025ZM207.085 21.2046L206.165 20.8117L206.162 20.8188L207.085 21.2046ZM207.31 15.0278L206.348 15.3026L206.351 15.3123L207.31 15.0278ZM206.434 13.3096L205.661 13.9449L205.668 13.9522L206.434 13.3096ZM205.019 12.2539L204.622 13.1718L204.626 13.1737L205.019 12.2539ZM199.437 11.8945H198.437V12.8945H199.437V11.8945ZM199.437 9.64844V8.64844H198.437V9.64844H199.437ZM206.074 10.1987L205.696 11.1245L205.703 11.1272L206.074 10.1987ZM208.399 11.7598L207.676 12.4508L207.68 12.4549L208.399 11.7598ZM209.915 14.208L208.977 14.5551L209.915 14.208ZM208.399 23.8999L209.114 24.599L209.118 24.5951L208.399 23.8999ZM206.041 25.4609L206.409 26.3905L206.413 26.3889L206.041 25.4609ZM201.066 9.64844H202.066V8.64844H201.066V9.64844ZM201.066 26V27H202.066V26H201.066ZM198.247 26H197.247V27H198.247V26ZM198.247 9.64844V8.64844H197.247V9.64844H198.247ZM202.997 26V25H199.504V26V27H202.997V26ZM199.504 26L200.504 26.01L200.527 23.7752L199.527 23.7651L198.527 23.7551L198.505 25.99L199.504 26ZM199.527 23.7651V24.7651H202.997V23.7651V22.7651H199.527V23.7651ZM202.997 23.7651V24.7651C204.154 24.7651 205.2 24.5114 206.079 23.9416L205.535 23.1025L204.991 22.2635C204.507 22.5771 203.862 22.7651 202.997 22.7651V23.7651ZM205.535 23.1025L206.075 23.9443C206.95 23.383 207.592 22.5834 208.008 21.5904L207.085 21.2046L206.162 20.8188C205.889 21.4729 205.498 21.9386 204.995 22.2608L205.535 23.1025ZM207.085 21.2046L208.005 21.5975C208.422 20.621 208.613 19.5001 208.613 18.2622H207.613H206.613C206.613 19.3003 206.452 20.141 206.165 20.8117L207.085 21.2046ZM207.613 18.2622H208.613V17.375H207.613H206.613V18.2622H207.613ZM207.613 17.375H208.613C208.613 16.4176 208.504 15.5363 208.268 14.7434L207.31 15.0278L206.351 15.3123C206.52 15.882 206.613 16.5655 206.613 17.375H207.613ZM207.31 15.0278L208.271 14.7531C208.044 13.9595 207.693 13.2554 207.2 12.667L206.434 13.3096L205.668 13.9522C205.953 14.2921 206.186 14.7336 206.348 15.3026L207.31 15.0278ZM206.434 13.3096L207.206 12.6743C206.721 12.0842 206.118 11.6357 205.411 11.3341L205.019 12.2539L204.626 13.1737C205.043 13.3513 205.383 13.6066 205.661 13.9448L206.434 13.3096ZM205.019 12.2539L205.416 11.336C204.713 11.0324 203.934 10.8945 203.098 10.8945V11.8945V12.8945C203.715 12.8945 204.216 12.9962 204.622 13.1718L205.019 12.2539ZM203.098 11.8945V10.8945H199.437V11.8945V12.8945H203.098V11.8945ZM199.437 11.8945H200.437V9.64844H199.437H198.437V11.8945H199.437ZM199.437 9.64844V10.6484H203.098V9.64844V8.64844H199.437V9.64844ZM203.098 9.64844V10.6484C204.07 10.6484 204.931 10.8122 205.696 11.1245L206.074 10.1987L206.452 9.27294C205.42 8.85158 204.298 8.64844 203.098 8.64844V9.64844ZM206.074 10.1987L205.703 11.1272C206.472 11.4349 207.126 11.8756 207.676 12.4508L208.399 11.7598L209.122 11.0687C208.369 10.2813 207.473 9.68128 206.446 9.27025L206.074 10.1987ZM208.399 11.7598L207.68 12.4549C208.236 13.0298 208.67 13.725 208.977 14.5551L209.915 14.208L210.853 13.8609C210.456 12.7893 209.88 11.8523 209.118 11.0646L208.399 11.7598ZM209.915 14.208L208.977 14.5551C209.282 15.3787 209.443 16.3219 209.443 17.3975H210.443H211.443C211.443 16.1221 211.252 14.939 210.853 13.8609L209.915 14.208ZM210.443 17.3975H209.443V18.2622H210.443H211.443V17.3975H210.443ZM210.443 18.2622H209.443C209.443 19.3378 209.282 20.281 208.977 21.1046L209.915 21.4517L210.853 21.7987C211.252 20.7206 211.443 19.5376 211.443 18.2622H210.443ZM209.915 21.4517L208.977 21.1046C208.67 21.9347 208.236 22.6298 207.68 23.2047L208.399 23.8999L209.118 24.5951C209.88 23.8073 210.456 22.8703 210.853 21.7987L209.915 21.4517ZM208.399 23.8999L207.684 23.2008C207.126 23.771 206.458 24.2155 205.668 24.533L206.041 25.4609L206.413 26.3889C207.45 25.9727 208.354 25.3765 209.114 24.599L208.399 23.8999ZM206.041 25.4609L205.672 24.5314C204.9 24.8377 204.013 25 202.997 25V26V27C204.227 27 205.37 26.8029 206.409 26.3905L206.041 25.4609ZM201.066 9.64844H200.066V26H201.066H202.066V9.64844H201.066ZM201.066 26V25H198.247V26V27H201.066V26ZM198.247 26H199.247V9.64844H198.247H197.247V26H198.247ZM198.247 9.64844V10.6484H201.066V9.64844V8.64844H198.247V9.64844ZM226.276 23.7651H227.276V22.7651H226.276V23.7651ZM226.276 26V27H227.276V26H226.276ZM217.595 26H216.595V27H217.595V26ZM217.595 23.7651V22.7651H216.595V23.7651H217.595ZM218.392 9.64844H219.392V8.64844H218.392V9.64844ZM218.392 26V27H219.392V26H218.392ZM215.573 26H214.573V27H215.573V26ZM215.573 9.64844V8.64844H214.573V9.64844H215.573ZM225.141 16.4766H226.141V15.4766H225.141V16.4766ZM225.141 18.6777V19.6777H226.141V18.6777H225.141ZM217.595 18.6777H216.595V19.6777H217.595V18.6777ZM217.595 16.4766V15.4766H216.595V16.4766H217.595ZM226.22 9.64844H227.22V8.64844H226.22V9.64844ZM226.22 11.8945V12.8945H227.22V11.8945H226.22ZM217.595 11.8945H216.595V12.8945H217.595V11.8945ZM217.595 9.64844V8.64844H216.595V9.64844H217.595ZM226.276 23.7651H225.276V26H226.276H227.276V23.7651H226.276ZM226.276 26V25H217.595V26V27H226.276V26ZM217.595 26H218.595V23.7651H217.595H216.595V26H217.595ZM217.595 23.7651V24.7651H226.276V23.7651V22.7651H217.595V23.7651ZM218.392 9.64844H217.392V26H218.392H219.392V9.64844H218.392ZM218.392 26V25H215.573V26V27H218.392V26ZM215.573 26H216.573V9.64844H215.573H214.573V26H215.573ZM215.573 9.64844V10.6484H218.392V9.64844V8.64844H215.573V9.64844ZM225.141 16.4766H224.141V18.6777H225.141H226.141V16.4766H225.141ZM225.141 18.6777V17.6777H217.595V18.6777V19.6777H225.141V18.6777ZM217.595 18.6777H218.595V16.4766H217.595H216.595V18.6777H217.595ZM217.595 16.4766V17.4766H225.141V16.4766V15.4766H217.595V16.4766ZM226.22 9.64844H225.22V11.8945H226.22H227.22V9.64844H226.22ZM226.22 11.8945V10.8945H217.595V11.8945V12.8945H226.22V11.8945ZM217.595 11.8945H218.595V9.64844H217.595H216.595V11.8945H217.595ZM217.595 9.64844V10.6484H226.22V9.64844V8.64844H217.595V9.64844ZM243.849 9.64844H244.849V8.64844H243.849V9.64844ZM243.849 26V27H244.849V26H243.849ZM241.03 26L240.183 26.5307L240.477 27H241.03V26ZM233.697 14.2866L234.544 13.756L232.697 10.8049V14.2866H233.697ZM233.697 26V27H234.697V26H233.697ZM230.878 26H229.878V27H230.878V26ZM230.878 9.64844V8.64844H229.878V9.64844H230.878ZM233.697 9.64844L234.544 9.11735L234.25 8.64844H233.697V9.64844ZM241.053 21.3843L240.205 21.9154L242.053 24.8626V21.3843H241.053ZM241.053 9.64844V8.64844H240.053V9.64844H241.053ZM243.849 9.64844H242.849V26H243.849H244.849V9.64844H243.849ZM243.849 26V25H241.03V26V27H243.849V26ZM241.03 26L241.878 25.4693L234.544 13.756L233.697 14.2866L232.849 14.8173L240.183 26.5307L241.03 26ZM233.697 14.2866H232.697V26H233.697H234.697V14.2866H233.697ZM233.697 26V25H230.878V26V27H233.697V26ZM230.878 26H231.878V9.64844H230.878H229.878V26H230.878ZM230.878 9.64844V10.6484H233.697V9.64844V8.64844H230.878V9.64844ZM233.697 9.64844L232.849 10.1795L240.205 21.9154L241.053 21.3843L241.9 20.8532L234.544 9.11735L233.697 9.64844ZM241.053 21.3843H242.053V9.64844H241.053H240.053V21.3843H241.053ZM241.053 9.64844V10.6484H243.849V9.64844V8.64844H241.053V9.64844ZM257.952 20.8901L257.015 21.2383L257.019 21.25L257.024 21.2615L257.952 20.8901ZM257.425 20.1714L256.776 20.9322L257.425 20.1714ZM256.346 19.5425L255.929 20.4513L255.938 20.4554L255.947 20.4593L256.346 19.5425ZM254.594 18.9023L254.3 19.8581L254.302 19.8588L254.594 18.9023ZM252.438 18.105L252.02 19.0136L252.033 19.0192L252.438 18.105ZM250.731 17.0718L250.099 17.8468L250.106 17.8526L250.731 17.0718ZM249.597 15.7129L248.71 16.1755L248.713 16.1808L249.597 15.7129ZM249.608 12.1079L248.721 11.6461L248.716 11.6558L249.608 12.1079ZM250.81 10.6929L251.419 11.4859L251.421 11.4847L250.81 10.6929ZM252.663 9.76074L252.955 10.7172L252.964 10.7143L252.663 9.76074ZM258.154 10.0977L257.698 10.9875L257.701 10.989L258.154 10.0977ZM260.187 11.9058L259.339 12.435L259.343 12.441L260.187 11.9058ZM260.906 14.4102V15.4102H261.906V14.4102H260.906ZM258.11 14.4102H257.11V15.4102H258.11V14.4102ZM257.761 12.9839L256.88 13.4561L256.885 13.4656L256.89 13.4749L257.761 12.9839ZM256.728 11.9956L256.264 12.8812L256.27 12.8842L256.728 11.9956ZM253.325 11.9395L252.909 11.0301L253.325 11.9395ZM252.225 14.7695L251.352 15.2574L251.358 15.2685L252.225 14.7695ZM252.876 15.4658L252.279 16.2683L252.286 16.2733L252.293 16.2781L252.876 15.4658ZM253.977 16.061L253.587 16.9818L253.977 16.061ZM255.538 16.6001L255.823 15.6416L255.814 15.639L255.538 16.6001ZM257.907 17.4985L257.468 18.397L257.476 18.4008L257.907 17.4985ZM260.603 20.0029L259.684 20.3969L259.686 20.4017L260.603 20.0029ZM260.524 23.6304L261.416 24.0825L261.419 24.0776L260.524 23.6304ZM259.334 25.0342L259.934 25.8342L259.936 25.8328L259.334 25.0342ZM257.492 25.9214L257.765 26.8833L257.772 26.8814L257.492 25.9214ZM252.786 25.9102L252.519 26.8738L252.522 26.8745L252.786 25.9102ZM250.72 24.9556L250.147 25.7753L250.154 25.7799L250.72 24.9556ZM249.238 23.3384L248.366 23.8291L248.369 23.8334L249.238 23.3384ZM248.687 21.0586V20.0586H247.687V21.0586H248.687ZM251.506 21.0586H252.506V20.0586H251.506V21.0586ZM251.776 22.4175L250.874 22.8502L250.878 22.8575L250.881 22.8647L251.776 22.4175ZM252.55 23.3384L251.962 24.1471L251.968 24.1515L251.975 24.1559L252.55 23.3384ZM253.696 23.855L253.446 24.8231L253.45 24.8241L253.696 23.855ZM256.762 23.7427L256.377 22.8196L256.372 22.8219L256.762 23.7427ZM258.11 21.7886H259.11C259.11 21.3486 259.041 20.9194 258.881 20.5187L257.952 20.8901L257.024 21.2615C257.073 21.385 257.11 21.5548 257.11 21.7886H258.11ZM257.952 20.8901L258.89 20.542C258.722 20.0913 258.432 19.7166 258.073 19.4106L257.425 20.1714L256.776 20.9322C256.926 21.0604 256.988 21.1649 257.015 21.2383L257.952 20.8901ZM257.425 20.1714L258.073 19.4106C257.716 19.1055 257.259 18.8492 256.746 18.6256L256.346 19.5425L255.947 20.4593C256.362 20.6401 256.624 20.803 256.776 20.9322L257.425 20.1714ZM256.346 19.5425L256.764 18.6337C256.252 18.3988 255.622 18.1705 254.886 17.9459L254.594 18.9023L254.302 19.8588C254.989 20.0684 255.527 20.2669 255.929 20.4513L256.346 19.5425ZM254.594 18.9023L254.889 17.9466C254.143 17.7171 253.462 17.4648 252.843 17.1907L252.438 18.105L252.033 19.0192C252.732 19.3292 253.489 19.6084 254.3 19.8581L254.594 18.9023ZM252.438 18.105L252.856 17.1964C252.268 16.9259 251.77 16.6225 251.356 16.2909L250.731 17.0718L250.106 17.8526C250.665 18.2997 251.306 18.6851 252.02 19.0136L252.438 18.105ZM250.731 17.0718L251.363 16.2968C250.971 15.9768 250.682 15.6257 250.481 15.245L249.597 15.7129L248.713 16.1808C249.051 16.8183 249.518 17.3731 250.099 17.8468L250.731 17.0718ZM249.597 15.7129L250.483 15.2503C250.299 14.8974 250.193 14.4653 250.193 13.9272H249.193H248.193C248.193 14.7369 248.355 15.4952 248.71 16.1755L249.597 15.7129ZM249.193 13.9272H250.193C250.193 13.404 250.3 12.9544 250.5 12.56L249.608 12.1079L248.716 11.6558C248.362 12.3545 248.193 13.1178 248.193 13.9272H249.193ZM249.608 12.1079L250.495 12.5696C250.708 12.1598 251.011 11.7991 251.419 11.4859L250.81 10.6929L250.201 9.89982C249.575 10.3803 249.077 10.9629 248.721 11.6462L249.608 12.1079ZM250.81 10.6929L251.421 11.4847C251.838 11.1625 252.345 10.9034 252.955 10.7172L252.663 9.76074L252.371 8.80431C251.558 9.05232 250.83 9.41461 250.199 9.90109L250.81 10.6929ZM252.663 9.76074L252.964 10.7143C253.564 10.5248 254.247 10.4238 255.021 10.4238V9.42383V8.42383C254.073 8.42383 253.184 8.54746 252.362 8.80716L252.663 9.76074ZM255.021 9.42383V10.4238C256.112 10.4238 256.992 10.6256 257.698 10.9875L258.154 10.0977L258.611 9.20784C257.565 8.67131 256.357 8.42383 255.021 8.42383V9.42383ZM258.154 10.0977L257.701 10.989C258.441 11.3653 258.974 11.8501 259.339 12.435L260.187 11.9058L261.036 11.3765C260.457 10.449 259.635 9.72848 258.608 9.20627L258.154 10.0977ZM260.187 11.9058L259.343 12.441C259.718 13.0337 259.906 13.6822 259.906 14.4102H260.906H261.906C261.906 13.3113 261.615 12.2902 261.032 11.3705L260.187 11.9058ZM260.906 14.4102V13.4102H258.11V14.4102V15.4102H260.906V14.4102ZM258.11 14.4102H259.11C259.11 13.7236 258.96 13.0745 258.633 12.4929L257.761 12.9839L256.89 13.4749C257.027 13.7168 257.11 14.0186 257.11 14.4102H258.11ZM257.761 12.9839L258.643 12.5117C258.313 11.8965 257.812 11.4299 257.187 11.107L256.728 11.9956L256.27 12.8842C256.572 13.0405 256.76 13.2327 256.88 13.4561L257.761 12.9839ZM256.728 11.9956L257.193 11.1101C256.55 10.7729 255.797 10.6362 254.988 10.6362V11.6362V12.6362C255.586 12.6362 255.993 12.7391 256.264 12.8812L256.728 11.9956ZM254.988 11.6362V10.6362C254.228 10.6362 253.521 10.7504 252.909 11.0301L253.325 11.9395L253.742 12.8488C254.014 12.7242 254.415 12.6362 254.988 12.6362V11.6362ZM253.325 11.9395L252.909 11.0301C252.325 11.2973 251.831 11.6876 251.491 12.226L252.337 12.7593L253.183 13.2926C253.278 13.1421 253.442 12.9859 253.742 12.8488L253.325 11.9395ZM252.337 12.7593L251.491 12.226C251.167 12.7408 251.011 13.3174 251.011 13.9272H252.011H253.011C253.011 13.6686 253.073 13.4666 253.183 13.2926L252.337 12.7593ZM252.011 13.9272H251.011C251.011 14.3957 251.122 14.8458 251.352 15.2574L252.225 14.7695L253.098 14.2817C253.043 14.1842 253.011 14.0727 253.011 13.9272H252.011ZM252.225 14.7695L251.358 15.2685C251.585 15.662 251.907 15.9912 252.279 16.2683L252.876 15.4658L253.473 14.6634C253.262 14.5062 253.149 14.3712 253.091 14.2706L252.225 14.7695ZM252.876 15.4658L252.293 16.2781C252.661 16.5426 253.098 16.7747 253.587 16.9818L253.977 16.061L254.367 15.1403C253.972 14.973 253.675 14.8084 253.459 14.6535L252.876 15.4658ZM253.977 16.061L253.587 16.9818C254.074 17.1885 254.635 17.3809 255.261 17.5612L255.538 16.6001L255.814 15.639C255.243 15.4749 254.762 15.3079 254.367 15.1403L253.977 16.061ZM255.538 16.6001L255.253 17.5586C256.119 17.8162 256.855 18.097 257.468 18.3969L257.907 17.4985L258.347 16.6002C257.612 16.2412 256.769 15.923 255.823 15.6416L255.538 16.6001ZM257.907 17.4985L257.476 18.4008C258.08 18.6894 258.554 19.0044 258.916 19.3363L259.592 18.5991L260.268 17.862C259.731 17.3703 259.082 16.9516 258.339 16.5962L257.907 17.4985ZM259.592 18.5991L258.916 19.3363C259.268 19.6589 259.519 20.012 259.684 20.3968L260.603 20.0029L261.522 19.609C261.238 18.9457 260.814 18.3629 260.268 17.862L259.592 18.5991ZM260.603 20.0029L259.686 20.4017C259.847 20.7729 259.94 21.2214 259.94 21.7661H260.94H261.94C261.94 20.9931 261.808 20.2661 261.52 19.6042L260.603 20.0029ZM260.94 21.7661H259.94C259.94 22.3173 259.83 22.7829 259.63 23.1832L260.524 23.6304L261.419 24.0776C261.772 23.3698 261.94 22.5926 261.94 21.7661H260.94ZM260.524 23.6304L259.632 23.1783C259.428 23.5811 259.134 23.9329 258.732 24.2356L259.334 25.0342L259.936 25.8328C260.567 25.3569 261.066 24.7727 261.416 24.0825L260.524 23.6304ZM259.334 25.0342L258.734 24.2342C258.336 24.5324 257.835 24.7796 257.212 24.9614L257.492 25.9214L257.772 26.8814C258.586 26.6439 259.313 26.2997 259.934 25.8342L259.334 25.0342ZM257.492 25.9214L257.219 24.9595C256.611 25.1322 255.911 25.2246 255.111 25.2246V26.2246V27.2246C256.063 27.2246 256.95 27.1149 257.765 26.8833L257.492 25.9214ZM255.111 26.2246V25.2246C254.415 25.2246 253.729 25.132 253.051 24.9458L252.786 25.9102L252.522 26.8745C253.371 27.1076 254.235 27.2246 255.111 27.2246V26.2246ZM252.786 25.9102L253.053 24.9465C252.4 24.7652 251.812 24.4928 251.286 24.1312L250.72 24.9556L250.154 25.7799C250.87 26.2719 251.661 26.6358 252.519 26.8738L252.786 25.9102ZM250.72 24.9556L251.293 24.1359C250.79 23.7845 250.398 23.3554 250.106 22.8433L249.238 23.3384L248.369 23.8334C248.811 24.6092 249.407 25.2581 250.147 25.7753L250.72 24.9556ZM249.238 23.3384L250.109 22.8476C249.839 22.3688 249.687 21.7832 249.687 21.0586H248.687H247.687C247.687 22.071 247.902 23.0053 248.366 23.8291L249.238 23.3384ZM248.687 21.0586V22.0586H251.506V21.0586V20.0586H248.687V21.0586ZM251.506 21.0586H250.506C250.506 21.6994 250.614 22.3085 250.874 22.8502L251.776 22.4175L252.677 21.9847C252.578 21.7778 252.506 21.4809 252.506 21.0586H251.506ZM251.776 22.4175L250.881 22.8647C251.138 23.3783 251.5 23.8106 251.962 24.1471L252.55 23.3384L253.139 22.5296C252.942 22.3869 252.788 22.2054 252.67 21.9703L251.776 22.4175ZM252.55 23.3384L251.975 24.1559C252.413 24.4648 252.908 24.684 253.446 24.8231L253.696 23.855L253.946 22.8868C253.616 22.8013 253.347 22.6761 253.126 22.5209L252.55 23.3384ZM253.696 23.855L253.45 24.8241C253.979 24.9589 254.535 25.0234 255.111 25.0234V24.0234V23.0234C254.684 23.0234 254.296 22.9757 253.942 22.8858L253.696 23.855ZM255.111 24.0234V25.0234C255.857 25.0234 256.55 24.9185 257.152 24.6634L256.762 23.7427L256.372 22.8219C256.09 22.9412 255.683 23.0234 255.111 23.0234V24.0234ZM256.762 23.7427L257.147 24.6658C257.741 24.4182 258.25 24.0431 258.605 23.5112L257.773 22.9565L256.941 22.4018C256.846 22.5438 256.682 22.6928 256.377 22.8196L256.762 23.7427ZM257.773 22.9565L258.605 23.5112C258.949 22.9951 259.11 22.409 259.11 21.7886H258.11H257.11C257.11 22.0516 257.046 22.2441 256.941 22.4018L257.773 22.9565Z" fill="black" mask="url(#path-1-outside-1_428_90)"/>
<path d="M75.7466 38.3359H77.021L78.9033 47.0151L83.7886 38.3359H85.1948L79.1377 49H78.0903L75.7466 38.3359ZM75.2852 38.3359H76.4644L75.5269 44.8838L74.8091 49H73.4321L75.2852 38.3359ZM84.4038 38.3359H85.5903L83.7373 49H82.3677L83.1001 44.7666L84.4038 38.3359ZM91.1236 47.0957L92.1637 41.0752H93.4967L92.1197 49H90.8526L91.1236 47.0957ZM91.6217 45.499L92.1637 45.4771C92.1002 45.9751 91.9879 46.4487 91.8268 46.8979C91.6656 47.3423 91.4459 47.7378 91.1676 48.0845C90.8941 48.4263 90.5523 48.6948 90.1422 48.8901C89.7369 49.0806 89.256 49.1685 88.6993 49.1538C88.2647 49.1392 87.901 49.0513 87.608 48.8901C87.3199 48.729 87.0929 48.5117 86.9269 48.2383C86.7608 47.9648 86.651 47.6523 86.5973 47.3008C86.5436 46.9492 86.5362 46.5781 86.5753 46.1875L87.4322 41.0752H88.7579L87.901 46.2095C87.8814 46.4243 87.879 46.6367 87.8937 46.8467C87.9083 47.0518 87.9522 47.2397 88.0255 47.4106C88.0987 47.5815 88.211 47.7207 88.3624 47.8281C88.5187 47.9307 88.7237 47.9868 88.9776 47.9966C89.505 48.0161 89.9518 47.9185 90.318 47.7036C90.6842 47.4839 90.9747 47.1812 91.1896 46.7954C91.4044 46.4097 91.5484 45.9775 91.6217 45.499ZM99.1545 46.854C99.1984 46.5513 99.1423 46.3145 98.986 46.1436C98.8347 45.9727 98.6345 45.8433 98.3854 45.7554C98.1413 45.6626 97.9021 45.5869 97.6677 45.5283C97.3747 45.4551 97.0793 45.3647 96.7814 45.2573C96.4836 45.1499 96.2102 45.0132 95.9611 44.8472C95.717 44.6763 95.5217 44.4663 95.3752 44.2173C95.2336 43.9634 95.1701 43.6558 95.1848 43.2944C95.2043 42.9038 95.3068 42.5596 95.4924 42.2617C95.6828 41.9639 95.927 41.7148 96.2248 41.5146C96.5275 41.3145 96.8571 41.1655 97.2136 41.0679C97.57 40.9702 97.924 40.9238 98.2756 40.9287C98.7736 40.9385 99.2253 41.041 99.6306 41.2363C100.041 41.4316 100.365 41.7124 100.605 42.0786C100.844 42.4448 100.956 42.8892 100.942 43.4116L99.6306 43.4043C99.6403 43.126 99.5842 42.8867 99.4621 42.6865C99.34 42.4863 99.1716 42.3325 98.9567 42.2251C98.7419 42.1128 98.4978 42.0542 98.2243 42.0493C97.9655 42.0444 97.7116 42.0859 97.4626 42.1738C97.2136 42.2568 97.0012 42.3887 96.8254 42.5693C96.6496 42.7451 96.5422 42.9746 96.5031 43.2578C96.4738 43.4678 96.5056 43.6411 96.5983 43.7778C96.6911 43.9097 96.8181 44.0171 96.9792 44.1001C97.1452 44.1782 97.3186 44.2441 97.4992 44.2979C97.6848 44.3467 97.8532 44.3906 98.0046 44.4297C98.405 44.542 98.8005 44.6836 99.1911 44.8545C99.5817 45.0254 99.8991 45.2622 100.143 45.5649C100.387 45.8628 100.497 46.2559 100.473 46.7441C100.453 47.1592 100.343 47.5205 100.143 47.8281C99.9479 48.1309 99.694 48.3823 99.3815 48.5825C99.0739 48.7778 98.7346 48.9219 98.3635 49.0146C97.9924 49.1074 97.6213 49.1514 97.2502 49.1465C96.7375 49.1367 96.259 49.0317 95.8146 48.8315C95.3752 48.6265 95.0236 48.3335 94.76 47.9526C94.4963 47.5669 94.3718 47.0981 94.3864 46.5464L95.7121 46.5537C95.7121 46.8711 95.778 47.1396 95.9099 47.3594C96.0466 47.5742 96.2346 47.7378 96.4738 47.8501C96.7131 47.9624 96.9865 48.021 97.2941 48.0259C97.5529 48.0308 97.8166 47.9966 98.0852 47.9233C98.3586 47.8501 98.593 47.728 98.7883 47.5571C98.9885 47.3813 99.1105 47.147 99.1545 46.854ZM105.281 49.1465C104.739 49.1367 104.268 49.0293 103.867 48.8242C103.472 48.6143 103.147 48.3335 102.893 47.9819C102.644 47.6255 102.466 47.2202 102.359 46.7661C102.251 46.312 102.22 45.8359 102.263 45.3379L102.293 45.0229C102.342 44.5151 102.466 44.0171 102.666 43.5288C102.867 43.0356 103.133 42.5913 103.465 42.1958C103.802 41.8003 104.197 41.4878 104.651 41.2583C105.11 41.0239 105.618 40.9141 106.175 40.9287C106.726 40.9385 107.185 41.0557 107.552 41.2803C107.918 41.5049 108.203 41.8027 108.408 42.1738C108.618 42.54 108.755 42.9526 108.819 43.4116C108.882 43.8657 108.887 44.332 108.833 44.8105L108.753 45.4185H103.003L103.179 44.3125L107.566 44.3198L107.588 44.2026C107.637 43.8511 107.617 43.5117 107.53 43.1846C107.442 42.8574 107.281 42.5889 107.046 42.3789C106.817 42.1641 106.507 42.0518 106.116 42.042C105.711 42.0273 105.359 42.1104 105.061 42.291C104.763 42.4668 104.514 42.7061 104.314 43.0088C104.114 43.3066 103.955 43.6338 103.838 43.9902C103.726 44.3418 103.648 44.686 103.604 45.0229L103.575 45.3306C103.545 45.6431 103.555 45.958 103.604 46.2754C103.653 46.5928 103.745 46.8833 103.882 47.147C104.024 47.4058 104.219 47.6182 104.468 47.7842C104.717 47.9453 105.025 48.0308 105.391 48.0405C105.835 48.0503 106.233 47.9551 106.585 47.7549C106.941 47.5498 107.266 47.291 107.559 46.9785L108.313 47.623C108.084 47.96 107.81 48.2432 107.493 48.4727C107.176 48.7021 106.829 48.873 106.453 48.9854C106.077 49.0977 105.686 49.1514 105.281 49.1465ZM114.835 47.0957L115.875 41.0752H117.208L115.831 49H114.564L114.835 47.0957ZM115.333 45.499L115.875 45.4771C115.812 45.9751 115.7 46.4487 115.538 46.8979C115.377 47.3423 115.158 47.7378 114.879 48.0845C114.606 48.4263 114.264 48.6948 113.854 48.8901C113.449 49.0806 112.968 49.1685 112.411 49.1538C111.976 49.1392 111.613 49.0513 111.32 48.8901C111.032 48.729 110.805 48.5117 110.639 48.2383C110.473 47.9648 110.363 47.6523 110.309 47.3008C110.255 46.9492 110.248 46.5781 110.287 46.1875L111.144 41.0752H112.47L111.613 46.2095C111.593 46.4243 111.591 46.6367 111.605 46.8467C111.62 47.0518 111.664 47.2397 111.737 47.4106C111.81 47.5815 111.923 47.7207 112.074 47.8281C112.23 47.9307 112.435 47.9868 112.689 47.9966C113.217 48.0161 113.663 47.9185 114.03 47.7036C114.396 47.4839 114.686 47.1812 114.901 46.7954C115.116 46.4097 115.26 45.9775 115.333 45.499ZM120.376 42.7305L119.292 49H117.959L119.336 41.0752H120.596L120.376 42.7305ZM119.783 44.7373L119.182 44.7227C119.25 44.2295 119.373 43.7534 119.548 43.2944C119.724 42.8354 119.958 42.4253 120.251 42.064C120.549 41.7026 120.908 41.4194 121.328 41.2144C121.748 41.0093 122.234 40.9141 122.786 40.9287C123.196 40.9385 123.542 41.019 123.826 41.1704C124.109 41.3169 124.336 41.5195 124.507 41.7783C124.683 42.0322 124.8 42.3252 124.858 42.6572C124.922 42.9893 124.937 43.3433 124.902 43.7192L124.016 49H122.69L123.569 43.7778C123.608 43.4458 123.589 43.1528 123.511 42.8989C123.438 42.645 123.298 42.4448 123.093 42.2983C122.888 42.147 122.61 42.0664 122.258 42.0566C121.863 42.0469 121.519 42.1152 121.226 42.2617C120.938 42.4082 120.696 42.6108 120.5 42.8696C120.31 43.1235 120.156 43.4141 120.039 43.7412C119.922 44.0635 119.836 44.3955 119.783 44.7373ZM124.902 43.9902L123.95 44.2686C124.009 43.8145 124.131 43.3848 124.316 42.9795C124.507 42.5742 124.753 42.2153 125.056 41.9028C125.359 41.5903 125.71 41.3462 126.111 41.1704C126.511 40.9946 126.953 40.9116 127.437 40.9214C127.866 40.9312 128.23 41.0117 128.528 41.1631C128.826 41.3096 129.062 41.5122 129.238 41.771C129.419 42.0298 129.539 42.3325 129.597 42.6792C129.661 43.021 129.67 43.3921 129.626 43.7925L128.755 49H127.422L128.301 43.7705C128.34 43.4336 128.323 43.1382 128.25 42.8843C128.181 42.6304 128.044 42.4326 127.839 42.291C127.634 42.1445 127.351 42.0688 126.99 42.064C126.702 42.0542 126.438 42.0981 126.199 42.1958C125.959 42.2935 125.752 42.4326 125.576 42.6133C125.4 42.7891 125.254 42.9941 125.137 43.2285C125.024 43.4629 124.946 43.7168 124.902 43.9902ZM137.573 43.082L139.301 41.9468C139.599 41.7515 139.863 41.5342 140.092 41.2949C140.322 41.0557 140.456 40.748 140.495 40.3721C140.529 40.0498 140.442 39.7886 140.232 39.5884C140.022 39.3882 139.758 39.2856 139.441 39.2808C139.162 39.2808 138.916 39.3516 138.701 39.4932C138.491 39.6348 138.32 39.8203 138.188 40.0498C138.061 40.2793 137.983 40.5259 137.954 40.7896C137.92 41.0532 137.946 41.312 138.034 41.5659C138.122 41.8149 138.239 42.0566 138.386 42.291C138.532 42.5205 138.674 42.7402 138.811 42.9502L142.758 49H141.272L138.034 44.0488C137.82 43.7314 137.6 43.4043 137.375 43.0674C137.151 42.7256 136.965 42.3691 136.819 41.998C136.677 41.627 136.618 41.2388 136.643 40.8335C136.682 40.3013 136.826 39.835 137.075 39.4346C137.329 39.0293 137.666 38.7168 138.086 38.4971C138.506 38.2773 138.984 38.1748 139.521 38.1895C139.936 38.1992 140.317 38.2944 140.664 38.4751C141.01 38.6558 141.281 38.9097 141.477 39.2368C141.677 39.5591 141.765 39.9399 141.74 40.3794C141.721 40.7407 141.628 41.0654 141.462 41.3535C141.301 41.6416 141.096 41.9004 140.847 42.1299C140.598 42.3594 140.334 42.5718 140.056 42.7671L137.749 44.3418C137.539 44.4883 137.331 44.6543 137.126 44.8398C136.921 45.0205 136.743 45.2231 136.592 45.4478C136.445 45.6724 136.355 45.9189 136.321 46.1875C136.272 46.5586 136.313 46.8809 136.445 47.1543C136.577 47.4277 136.777 47.6426 137.046 47.7988C137.314 47.9502 137.632 48.0308 137.998 48.0405C138.525 48.0552 139.004 47.9478 139.433 47.7183C139.868 47.4839 140.246 47.1714 140.569 46.7808C140.896 46.3853 141.159 45.9531 141.36 45.4844C141.56 45.0107 141.694 44.542 141.762 44.0781H142.934C142.881 44.5664 142.78 45.0156 142.634 45.4258C142.487 45.8311 142.295 46.2168 142.055 46.583C141.816 46.9443 141.535 47.3032 141.213 47.6597C141.169 47.7085 141.128 47.7622 141.089 47.8208C141.054 47.8745 141.015 47.9258 140.971 47.9746C140.61 48.3799 140.146 48.6802 139.58 48.8755C139.018 49.0659 138.471 49.1562 137.939 49.1465C137.363 49.1318 136.843 49.0049 136.379 48.7656C135.915 48.5264 135.554 48.1895 135.295 47.7549C135.036 47.3154 134.929 46.793 134.973 46.1875C135.012 45.6846 135.166 45.2476 135.434 44.8765C135.708 44.5005 136.037 44.1685 136.423 43.8804C136.809 43.5923 137.192 43.3262 137.573 43.082ZM152.602 44.0122H149.899L150.082 42.877L152.39 42.8843C152.766 42.8843 153.12 42.8184 153.452 42.6865C153.788 42.5547 154.069 42.3569 154.294 42.0933C154.523 41.8296 154.662 41.4976 154.711 41.0972C154.76 40.7163 154.721 40.4111 154.594 40.1816C154.467 39.9473 154.272 39.7788 154.008 39.6763C153.749 39.5688 153.444 39.5103 153.093 39.5005L150.998 39.4932L149.35 49H147.966L149.819 38.3359L153.122 38.3433C153.566 38.353 153.976 38.4141 154.352 38.5264C154.733 38.6338 155.06 38.7998 155.334 39.0244C155.607 39.2441 155.812 39.5273 155.949 39.874C156.091 40.2207 156.142 40.6357 156.103 41.1191C156.064 41.6416 155.898 42.0811 155.605 42.4375C155.317 42.7939 154.953 43.0747 154.514 43.2798C154.079 43.48 153.627 43.6118 153.159 43.6753L152.602 44.0122ZM151.686 49H148.449L149.423 47.8501L151.723 47.8574C152.138 47.8574 152.521 47.7817 152.873 47.6304C153.225 47.479 153.515 47.2568 153.745 46.9639C153.979 46.6709 154.123 46.3096 154.177 45.8799C154.221 45.499 154.191 45.1719 154.089 44.8984C153.986 44.625 153.81 44.415 153.561 44.2686C153.312 44.1172 152.995 44.0342 152.609 44.0195L150.566 44.0122L150.778 42.877L153.378 42.8843L153.605 43.2944C154.045 43.3628 154.413 43.519 154.711 43.7632C155.014 44.0024 155.234 44.3052 155.371 44.6714C155.512 45.0327 155.568 45.4307 155.539 45.8652C155.485 46.5635 155.275 47.147 154.909 47.6157C154.548 48.0796 154.084 48.4287 153.517 48.6631C152.951 48.8926 152.341 49.0049 151.686 49ZM157.33 45.1694L157.352 45.001C157.41 44.4688 157.542 43.9561 157.747 43.4629C157.957 42.9697 158.233 42.5303 158.575 42.1445C158.917 41.7588 159.322 41.4561 159.791 41.2363C160.259 41.0166 160.782 40.9141 161.358 40.9287C161.915 40.9385 162.391 41.0581 162.786 41.2876C163.187 41.5171 163.509 41.8223 163.753 42.2031C164.002 42.5791 164.175 43.0039 164.273 43.4775C164.371 43.9512 164.395 44.4395 164.346 44.9424L164.332 45.1108C164.268 45.6431 164.131 46.1533 163.921 46.6416C163.711 47.1299 163.433 47.5645 163.086 47.9453C162.745 48.3262 162.339 48.6265 161.871 48.8462C161.402 49.061 160.882 49.1611 160.311 49.1465C159.759 49.1367 159.283 49.0195 158.882 48.7949C158.487 48.5654 158.167 48.2627 157.923 47.8867C157.679 47.5107 157.508 47.0884 157.41 46.6196C157.312 46.1509 157.286 45.6675 157.33 45.1694ZM158.67 45.001L158.655 45.1768C158.621 45.4844 158.619 45.8042 158.648 46.1362C158.682 46.4683 158.76 46.7759 158.882 47.0591C159.009 47.3423 159.192 47.5742 159.432 47.7549C159.671 47.9355 159.981 48.0308 160.362 48.0405C160.767 48.0503 161.124 47.9722 161.431 47.8062C161.739 47.6353 162 47.4058 162.215 47.1177C162.435 46.8296 162.608 46.5098 162.735 46.1582C162.867 45.8066 162.955 45.4575 162.999 45.1108L163.013 44.9424C163.047 44.6348 163.047 44.3149 163.013 43.9829C162.984 43.646 162.906 43.3335 162.779 43.0454C162.657 42.7524 162.476 42.5156 162.237 42.335C161.998 42.1494 161.688 42.0518 161.307 42.042C160.901 42.0273 160.542 42.1079 160.23 42.2837C159.922 42.4546 159.661 42.6865 159.446 42.9795C159.231 43.2725 159.058 43.5972 158.926 43.9536C158.799 44.3052 158.714 44.6543 158.67 45.001ZM170.048 41.0752L169.865 42.1152H165.697L165.88 41.0752H170.048ZM167.624 39.1489H168.942L167.602 47.0518C167.587 47.2227 167.592 47.3765 167.616 47.5132C167.641 47.6499 167.699 47.7598 167.792 47.8428C167.885 47.9209 168.026 47.9624 168.217 47.9673C168.324 47.9673 168.429 47.96 168.532 47.9453C168.639 47.9258 168.747 47.9087 168.854 47.894L168.759 49.0073C168.603 49.0513 168.442 49.083 168.275 49.1025C168.114 49.127 167.953 49.1367 167.792 49.1318C167.387 49.127 167.069 49.0244 166.84 48.8242C166.61 48.624 166.454 48.3652 166.371 48.0479C166.288 47.7305 166.264 47.3911 166.298 47.0298L167.624 39.1489ZM175.142 47.645L175.801 43.5508C175.835 43.248 175.806 42.9819 175.713 42.7524C175.625 42.5229 175.476 42.3447 175.266 42.2178C175.061 42.0908 174.802 42.0225 174.49 42.0127C174.217 42.0078 173.948 42.0518 173.684 42.1445C173.425 42.2373 173.201 42.3765 173.01 42.562C172.82 42.7476 172.696 42.9819 172.637 43.2651L171.319 43.2725C171.353 42.877 171.477 42.5327 171.692 42.2397C171.907 41.9419 172.175 41.6953 172.498 41.5C172.82 41.2998 173.167 41.1533 173.538 41.0605C173.909 40.9629 174.27 40.9165 174.622 40.9214C175.154 40.9312 175.615 41.0459 176.006 41.2656C176.402 41.4805 176.699 41.7832 176.9 42.1738C177.1 42.5645 177.173 43.0332 177.119 43.5801L176.511 47.2715C176.467 47.54 176.441 47.811 176.431 48.0845C176.426 48.353 176.458 48.6167 176.526 48.8755L176.511 49L175.171 49.0073C175.117 48.7827 175.091 48.5557 175.091 48.3262C175.095 48.0967 175.113 47.8696 175.142 47.645ZM175.955 44.1953L175.801 45.1475L174.549 45.1401C174.285 45.1401 174.007 45.1597 173.714 45.1987C173.421 45.2378 173.142 45.311 172.879 45.4185C172.615 45.5259 172.393 45.6821 172.212 45.8872C172.031 46.0874 171.922 46.3486 171.883 46.6709C171.853 46.9346 171.885 47.1641 171.978 47.3594C172.075 47.5498 172.222 47.6987 172.417 47.8062C172.613 47.9136 172.84 47.9697 173.098 47.9746C173.435 47.9795 173.767 47.9136 174.094 47.7769C174.422 47.6401 174.707 47.4448 174.951 47.1909C175.196 46.937 175.364 46.644 175.457 46.312L175.94 46.9639C175.847 47.2861 175.696 47.584 175.486 47.8574C175.276 48.126 175.027 48.3579 174.739 48.5532C174.456 48.7485 174.151 48.8999 173.823 49.0073C173.496 49.1147 173.169 49.166 172.842 49.1611C172.398 49.1514 171.995 49.0513 171.633 48.8608C171.277 48.6704 170.994 48.4043 170.784 48.0625C170.579 47.7158 170.491 47.313 170.52 46.854C170.55 46.3511 170.681 45.9287 170.916 45.5869C171.15 45.2451 171.45 44.9717 171.817 44.7666C172.188 44.5615 172.593 44.415 173.032 44.3271C173.472 44.2344 173.906 44.188 174.336 44.188L175.955 44.1953ZM180.822 42.8477L179.752 49H178.427L179.804 41.0752H181.056L180.822 42.8477ZM180.206 44.7373L179.664 44.7227C179.733 44.249 179.857 43.7852 180.038 43.3311C180.223 42.8721 180.465 42.4595 180.763 42.0933C181.066 41.7271 181.425 41.439 181.84 41.229C182.26 41.0142 182.738 40.9141 183.275 40.9287C183.7 40.9385 184.054 41.0215 184.337 41.1777C184.625 41.3291 184.85 41.5366 185.011 41.8003C185.172 42.064 185.28 42.3691 185.333 42.7158C185.387 43.0576 185.392 43.4214 185.348 43.8071L184.484 49H183.151L184.03 43.7852C184.064 43.4678 184.052 43.1821 183.993 42.9282C183.939 42.6694 183.817 42.4644 183.627 42.313C183.441 42.1567 183.173 42.0737 182.821 42.064C182.45 42.0542 182.116 42.125 181.818 42.2764C181.52 42.4277 181.259 42.6353 181.034 42.8989C180.814 43.1577 180.634 43.4482 180.492 43.7705C180.355 44.0879 180.26 44.4102 180.206 44.7373ZM189.431 41.0752L188.054 49H186.728L188.105 41.0752H189.431ZM188.369 38.9951C188.369 38.7656 188.44 38.5752 188.581 38.4238C188.728 38.2676 188.916 38.187 189.145 38.1821C189.375 38.1772 189.563 38.248 189.709 38.3945C189.861 38.541 189.934 38.7266 189.929 38.9512C189.929 39.1758 189.853 39.3638 189.702 39.5151C189.556 39.6616 189.37 39.7373 189.145 39.7422C188.921 39.7471 188.735 39.6812 188.589 39.5444C188.442 39.4028 188.369 39.2197 188.369 38.9951ZM193.617 48.0405C193.939 48.0454 194.239 47.9844 194.518 47.8574C194.796 47.7305 195.033 47.5498 195.228 47.3154C195.423 47.0811 195.562 46.8101 195.646 46.5024L196.905 46.4951C196.827 47.0273 196.62 47.4937 196.283 47.894C195.951 48.2944 195.543 48.6069 195.06 48.8315C194.581 49.0513 194.081 49.1562 193.558 49.1465C193.001 49.1367 192.528 49.022 192.137 48.8022C191.751 48.5776 191.441 48.2798 191.207 47.9087C190.973 47.5376 190.812 47.1201 190.724 46.6562C190.636 46.1875 190.616 45.7065 190.665 45.2134L190.694 44.8984C190.753 44.3662 190.882 43.8608 191.083 43.3823C191.283 42.8989 191.549 42.4717 191.881 42.1006C192.218 41.7246 192.616 41.4316 193.075 41.2217C193.534 41.0117 194.049 40.9141 194.62 40.9287C195.177 40.9385 195.66 41.0703 196.07 41.3242C196.48 41.5732 196.798 41.9126 197.022 42.3423C197.247 42.772 197.359 43.2603 197.359 43.8071L196.114 43.7998C196.109 43.4873 196.048 43.1992 195.931 42.9355C195.814 42.6719 195.641 42.4595 195.411 42.2983C195.182 42.1372 194.898 42.0493 194.562 42.0347C194.156 42.0249 193.802 42.1006 193.5 42.2617C193.202 42.4229 192.948 42.645 192.738 42.9282C192.533 43.2065 192.369 43.5166 192.247 43.8584C192.13 44.2002 192.049 44.5469 192.005 44.8984L191.969 45.2061C191.939 45.5186 191.935 45.8384 191.954 46.1655C191.979 46.4927 192.047 46.7979 192.159 47.0811C192.271 47.3594 192.445 47.5864 192.679 47.7622C192.914 47.938 193.226 48.0308 193.617 48.0405ZM202.871 47.645L203.53 43.5508C203.564 43.248 203.535 42.9819 203.442 42.7524C203.354 42.5229 203.205 42.3447 202.995 42.2178C202.79 42.0908 202.531 42.0225 202.219 42.0127C201.945 42.0078 201.677 42.0518 201.413 42.1445C201.154 42.2373 200.93 42.3765 200.739 42.562C200.549 42.7476 200.424 42.9819 200.366 43.2651L199.047 43.2725C199.082 42.877 199.206 42.5327 199.421 42.2397C199.636 41.9419 199.904 41.6953 200.227 41.5C200.549 41.2998 200.896 41.1533 201.267 41.0605C201.638 40.9629 201.999 40.9165 202.351 40.9214C202.883 40.9312 203.344 41.0459 203.735 41.2656C204.13 41.4805 204.428 41.7832 204.629 42.1738C204.829 42.5645 204.902 43.0332 204.848 43.5801L204.24 47.2715C204.196 47.54 204.17 47.811 204.16 48.0845C204.155 48.353 204.187 48.6167 204.255 48.8755L204.24 49L202.9 49.0073C202.846 48.7827 202.819 48.5557 202.819 48.3262C202.824 48.0967 202.841 47.8696 202.871 47.645ZM203.684 44.1953L203.53 45.1475L202.277 45.1401C202.014 45.1401 201.735 45.1597 201.442 45.1987C201.15 45.2378 200.871 45.311 200.608 45.4185C200.344 45.5259 200.122 45.6821 199.941 45.8872C199.76 46.0874 199.65 46.3486 199.611 46.6709C199.582 46.9346 199.614 47.1641 199.707 47.3594C199.804 47.5498 199.951 47.6987 200.146 47.8062C200.341 47.9136 200.568 47.9697 200.827 47.9746C201.164 47.9795 201.496 47.9136 201.823 47.7769C202.15 47.6401 202.436 47.4448 202.68 47.1909C202.924 46.937 203.093 46.644 203.186 46.312L203.669 46.9639C203.576 47.2861 203.425 47.584 203.215 47.8574C203.005 48.126 202.756 48.3579 202.468 48.5532C202.185 48.7485 201.879 48.8999 201.552 49.0073C201.225 49.1147 200.898 49.166 200.571 49.1611C200.127 49.1514 199.724 49.0513 199.362 48.8608C199.006 48.6704 198.723 48.4043 198.513 48.0625C198.308 47.7158 198.22 47.313 198.249 46.854C198.278 46.3511 198.41 45.9287 198.645 45.5869C198.879 45.2451 199.179 44.9717 199.546 44.7666C199.917 44.5615 200.322 44.415 200.761 44.3271C201.201 44.2344 201.635 44.188 202.065 44.188L203.684 44.1953ZM209.547 37.75L207.591 49H206.265L208.214 37.75H209.547ZM222.466 43.6899L221.836 47.5938C221.548 47.9941 221.189 48.3091 220.76 48.5386C220.335 48.7632 219.878 48.9219 219.39 49.0146C218.902 49.1074 218.426 49.1514 217.962 49.1465C217.254 49.1367 216.656 48.9854 216.167 48.6924C215.684 48.3994 215.301 48.0112 215.017 47.5278C214.734 47.0444 214.544 46.5049 214.446 45.9092C214.353 45.3135 214.349 44.7031 214.432 44.0781L214.549 43.2505C214.646 42.5815 214.817 41.9419 215.061 41.3315C215.31 40.7163 215.638 40.1719 216.043 39.6982C216.453 39.2197 216.944 38.8462 217.515 38.5776C218.086 38.3042 218.746 38.1748 219.493 38.1895C220.171 38.2041 220.752 38.3457 221.236 38.6143C221.724 38.8828 222.105 39.2588 222.378 39.7422C222.657 40.2256 222.82 40.7993 222.869 41.4634H221.507C221.473 41.0435 221.375 40.6772 221.214 40.3647C221.058 40.0522 220.83 39.8081 220.533 39.6323C220.24 39.4565 219.873 39.3613 219.434 39.3467C218.877 39.3271 218.394 39.4297 217.984 39.6543C217.579 39.874 217.237 40.1743 216.958 40.5552C216.685 40.9312 216.465 41.3535 216.299 41.8223C216.133 42.2861 216.014 42.7573 215.94 43.2358L215.816 44.0854C215.762 44.5005 215.747 44.9351 215.772 45.3892C215.801 45.8384 215.892 46.2583 216.043 46.6489C216.199 47.0396 216.436 47.3594 216.753 47.6084C217.071 47.8525 217.491 47.9795 218.013 47.9893C218.311 47.9941 218.604 47.9746 218.892 47.9307C219.185 47.8867 219.463 47.8086 219.727 47.6963C219.991 47.584 220.237 47.4253 220.467 47.2202L220.899 44.8325H218.496L218.702 43.6899H222.466ZM228.549 47.645L229.208 43.5508C229.242 43.248 229.213 42.9819 229.12 42.7524C229.032 42.5229 228.883 42.3447 228.673 42.2178C228.468 42.0908 228.209 42.0225 227.897 42.0127C227.624 42.0078 227.355 42.0518 227.091 42.1445C226.833 42.2373 226.608 42.3765 226.417 42.562C226.227 42.7476 226.103 42.9819 226.044 43.2651L224.726 43.2725C224.76 42.877 224.884 42.5327 225.099 42.2397C225.314 41.9419 225.583 41.6953 225.905 41.5C226.227 41.2998 226.574 41.1533 226.945 41.0605C227.316 40.9629 227.677 40.9165 228.029 40.9214C228.561 40.9312 229.022 41.0459 229.413 41.2656C229.809 41.4805 230.106 41.7832 230.307 42.1738C230.507 42.5645 230.58 43.0332 230.526 43.5801L229.918 47.2715C229.875 47.54 229.848 47.811 229.838 48.0845C229.833 48.353 229.865 48.6167 229.933 48.8755L229.918 49L228.578 49.0073C228.524 48.7827 228.498 48.5557 228.498 48.3262C228.502 48.0967 228.52 47.8696 228.549 47.645ZM229.362 44.1953L229.208 45.1475L227.956 45.1401C227.692 45.1401 227.414 45.1597 227.121 45.1987C226.828 45.2378 226.549 45.311 226.286 45.4185C226.022 45.5259 225.8 45.6821 225.619 45.8872C225.438 46.0874 225.329 46.3486 225.29 46.6709C225.26 46.9346 225.292 47.1641 225.385 47.3594C225.482 47.5498 225.629 47.6987 225.824 47.8062C226.02 47.9136 226.247 47.9697 226.505 47.9746C226.842 47.9795 227.174 47.9136 227.501 47.7769C227.829 47.6401 228.114 47.4448 228.358 47.1909C228.603 46.937 228.771 46.644 228.864 46.312L229.347 46.9639C229.254 47.2861 229.103 47.584 228.893 47.8574C228.683 48.126 228.434 48.3579 228.146 48.5532C227.863 48.7485 227.558 48.8999 227.23 49.0073C226.903 49.1147 226.576 49.166 226.249 49.1611C225.805 49.1514 225.402 49.0513 225.041 48.8608C224.684 48.6704 224.401 48.4043 224.191 48.0625C223.986 47.7158 223.898 47.313 223.927 46.854C223.957 46.3511 224.088 45.9287 224.323 45.5869C224.557 45.2451 224.857 44.9717 225.224 44.7666C225.595 44.5615 226 44.415 226.439 44.3271C226.879 44.2344 227.313 44.188 227.743 44.188L229.362 44.1953ZM234.309 42.3789L233.159 49H231.834L233.211 41.0752H234.5L234.309 42.3789ZM236.88 41.0093L236.755 42.2837C236.653 42.2642 236.548 42.2471 236.441 42.2324C236.338 42.2178 236.235 42.2104 236.133 42.2104C235.816 42.2056 235.53 42.2544 235.276 42.3569C235.027 42.4546 234.805 42.5938 234.609 42.7744C234.419 42.9551 234.255 43.1675 234.119 43.4116C233.987 43.6558 233.882 43.9194 233.804 44.2026L233.386 44.4224C233.44 44.0269 233.528 43.6216 233.65 43.2065C233.777 42.7915 233.95 42.4082 234.17 42.0566C234.395 41.7051 234.675 41.4219 235.012 41.207C235.354 40.9922 235.764 40.8921 236.243 40.9067C236.35 40.9067 236.455 40.9165 236.558 40.936C236.665 40.9556 236.773 40.98 236.88 41.0093ZM241.901 47.3813L243.571 37.75H244.904L242.948 49H241.739L241.901 47.3813ZM237.125 45.1841L237.14 45.0303C237.203 44.542 237.321 44.0537 237.491 43.5654C237.667 43.0771 237.904 42.6304 238.202 42.2251C238.5 41.8198 238.861 41.4976 239.286 41.2583C239.711 41.019 240.206 40.9067 240.773 40.9214C241.28 40.936 241.705 41.0557 242.047 41.2803C242.389 41.5049 242.657 41.8027 242.853 42.1738C243.053 42.54 243.187 42.9429 243.256 43.3823C243.329 43.8218 243.351 44.2637 243.321 44.708L243.241 45.3818C243.158 45.8555 243.021 46.3193 242.831 46.7734C242.64 47.2275 242.394 47.6377 242.091 48.0039C241.793 48.3652 241.434 48.6509 241.014 48.8608C240.599 49.0708 240.123 49.1685 239.586 49.1538C239.069 49.1343 238.639 49 238.297 48.751C237.96 48.502 237.696 48.1821 237.506 47.7915C237.321 47.396 237.198 46.9712 237.14 46.5171C237.086 46.0581 237.081 45.6138 237.125 45.1841ZM238.488 45.0156L238.473 45.1694C238.439 45.4624 238.426 45.7725 238.436 46.0996C238.451 46.4219 238.507 46.7271 238.605 47.0151C238.702 47.2983 238.861 47.5327 239.081 47.7183C239.3 47.8989 239.598 47.9966 239.974 48.0112C240.375 48.021 240.746 47.9307 241.088 47.7402C241.429 47.5498 241.722 47.2959 241.967 46.9785C242.211 46.6611 242.386 46.3169 242.494 45.9458L242.779 44.166C242.794 43.8975 242.762 43.6411 242.684 43.397C242.606 43.1479 242.489 42.9258 242.333 42.7305C242.181 42.5352 241.993 42.3789 241.769 42.2617C241.549 42.1396 241.302 42.0762 241.029 42.0713C240.619 42.0566 240.265 42.1372 239.967 42.313C239.669 42.4839 239.418 42.7158 239.213 43.0088C239.012 43.2969 238.854 43.6167 238.737 43.9683C238.619 44.3198 238.536 44.6689 238.488 45.0156ZM248.481 49.1465C247.939 49.1367 247.468 49.0293 247.068 48.8242C246.672 48.6143 246.347 48.3335 246.094 47.9819C245.845 47.6255 245.666 47.2202 245.559 46.7661C245.451 46.312 245.42 45.8359 245.464 45.3379L245.493 45.0229C245.542 44.5151 245.666 44.0171 245.867 43.5288C246.067 43.0356 246.333 42.5913 246.665 42.1958C247.002 41.8003 247.397 41.4878 247.851 41.2583C248.31 41.0239 248.818 40.9141 249.375 40.9287C249.927 40.9385 250.386 41.0557 250.752 41.2803C251.118 41.5049 251.404 41.8027 251.609 42.1738C251.819 42.54 251.955 42.9526 252.019 43.4116C252.082 43.8657 252.087 44.332 252.033 44.8105L251.953 45.4185H246.203L246.379 44.3125L250.766 44.3198L250.788 44.2026C250.837 43.8511 250.818 43.5117 250.73 43.1846C250.642 42.8574 250.481 42.5889 250.246 42.3789C250.017 42.1641 249.707 42.0518 249.316 42.042C248.911 42.0273 248.559 42.1104 248.262 42.291C247.964 42.4668 247.715 42.7061 247.514 43.0088C247.314 43.3066 247.156 43.6338 247.038 43.9902C246.926 44.3418 246.848 44.686 246.804 45.0229L246.775 45.3306C246.745 45.6431 246.755 45.958 246.804 46.2754C246.853 46.5928 246.946 46.8833 247.082 47.147C247.224 47.4058 247.419 47.6182 247.668 47.7842C247.917 47.9453 248.225 48.0308 248.591 48.0405C249.035 48.0503 249.433 47.9551 249.785 47.7549C250.141 47.5498 250.466 47.291 250.759 46.9785L251.513 47.623C251.284 47.96 251.011 48.2432 250.693 48.4727C250.376 48.7021 250.029 48.873 249.653 48.9854C249.277 49.0977 248.887 49.1514 248.481 49.1465ZM255.392 42.8477L254.322 49H252.996L254.373 41.0752H255.626L255.392 42.8477ZM254.776 44.7373L254.234 44.7227C254.303 44.249 254.427 43.7852 254.608 43.3311C254.793 42.8721 255.035 42.4595 255.333 42.0933C255.636 41.7271 255.995 41.439 256.41 41.229C256.829 41.0142 257.308 40.9141 257.845 40.9287C258.27 40.9385 258.624 41.0215 258.907 41.1777C259.195 41.3291 259.42 41.5366 259.581 41.8003C259.742 42.064 259.85 42.3691 259.903 42.7158C259.957 43.0576 259.962 43.4214 259.918 43.8071L259.054 49H257.721L258.6 43.7852C258.634 43.4678 258.621 43.1821 258.563 42.9282C258.509 42.6694 258.387 42.4644 258.197 42.313C258.011 42.1567 257.743 42.0737 257.391 42.064C257.02 42.0542 256.685 42.125 256.388 42.2764C256.09 42.4277 255.829 42.6353 255.604 42.8989C255.384 43.1577 255.204 43.4482 255.062 43.7705C254.925 44.0879 254.83 44.4102 254.776 44.7373Z" fill="#333333"/>
<path fill-rule="evenodd" clip-rule="evenodd" d="M29.5 59C45.7924 59 59 45.7924 59 29.5C59 13.2076 45.7924 0 29.5 0C13.2076 0 0 13.2076 0 29.5C0 37.9333 3.53873 45.5401 9.2123 50.9164C9.94271 50.4585 10.668 49.9953 11.3878 49.527C11.4599 49.1224 11.5463 48.6324 11.643 48.075C11.6936 47.7905 11.7479 47.4891 11.8115 47.1747C11.8608 46.9215 11.9174 46.6612 11.9761 46.391L12.0006 46.2782C12.2437 45.1674 12.4987 43.9193 12.7073 42.6112H12.6186C10.2902 42.6542 8.15457 42.0253 6.92111 40.6365C6.35773 40.0039 5.959 39.2122 5.84109 38.2632C5.71568 37.2487 5.91036 36.0527 6.48871 34.6696L6.57851 34.4131L6.97161 34.4992C8.47459 34.7912 10.3987 35.1805 11.7089 36.88C12.3123 37.661 12.786 38.7231 13.0219 40.1906C13.0438 39.9653 13.0634 39.7396 13.0805 39.5138C13.1819 38.1825 13.2057 36.8538 13.097 35.6037C10.5628 34.6049 8.52982 31.6399 7.93935 28.4049C7.711 27.1528 7.69037 25.8594 7.95054 24.6484C8.34734 22.801 9.35812 21.1409 11.0726 20.0253L11.2523 19.8979L11.5349 20.1357C13.7623 21.9531 14.8796 24.5286 15.1828 27.3155C15.4692 29.9659 15.0088 32.8071 14.0655 35.3676L13.9182 35.7502C14.1029 36.9679 14.1735 38.2605 14.1624 39.5606C14.1399 42.0368 13.8368 44.5356 13.4568 46.5739C13.3988 46.8921 13.3351 47.1991 13.2658 47.4929C13.1891 47.813 13.1068 48.1162 13.0226 48.4007L13.005 48.4593C18.021 45.0993 22.7398 41.4767 26.9851 37.5739C26.9736 37.4157 26.9557 37.1082 26.952 36.6875C26.9501 36.4872 26.9502 36.2664 26.9689 36.023C26.9871 35.81 27.0192 35.5837 27.0529 35.346L27.0529 35.3459L27.0529 35.3459L27.0529 35.3458L27.053 35.3457L27.053 35.3453L27.053 35.3451L27.0531 35.3449L27.0531 35.3447L27.0531 35.3443L27.0532 35.344L27.0533 35.3436L27.0533 35.343C27.0749 35.1911 27.0971 35.0346 27.1167 34.8738C27.1903 34.2838 27.2657 33.6494 27.3061 33.0058C25.7672 31.9707 24.46 30.5058 23.609 28.9536C23.1935 28.1974 22.8866 27.4207 22.7069 26.6758C22.5141 25.8728 22.4504 25.1053 22.5515 24.4315C22.7443 23.1363 23.4201 22.1536 24.6966 21.8336C25.6044 21.4873 26.5702 21.8243 27.4124 22.6292C28.2584 23.4377 28.9734 24.7366 29.3534 26.2284C29.886 28.3331 29.7254 30.8045 28.3819 32.8294C28.4182 33.144 28.4459 33.4595 28.4662 33.7714C28.5018 34.2917 28.5186 34.797 28.5073 35.2687C28.4987 35.6003 28.4884 35.9126 28.4511 36.1966C31.2038 33.5532 33.7374 30.7843 35.9996 27.8849C36.6081 27.1066 37.1078 26.379 37.5518 25.63L37.3541 25.2532C36.2835 23.271 35.6451 20.6806 35.6769 18.2474C35.6919 17.1524 35.8417 16.0893 36.1374 15.1347C36.4425 14.1521 36.8879 13.2761 37.4944 12.5966C38.4433 11.5298 39.7368 10.8991 41.4101 11.0133C42.4751 10.9908 43.2106 11.6215 43.6374 12.6584C44.242 14.1259 44.182 16.4767 43.5437 18.777C42.7561 21.6111 41.0671 24.3201 38.7957 25.3313C38.252 26.4117 37.634 27.4113 36.8213 28.5082C36.3925 29.0866 35.9534 29.6603 35.5044 30.2294C35.7558 30.1124 36.017 29.9984 36.286 29.8875C36.7154 29.7113 37.1631 29.5457 37.6236 29.3991C38.4807 27.7273 39.989 26.2437 41.6692 25.2792C42.4422 24.8356 43.2507 24.5025 44.035 24.306C44.8622 24.0982 45.6634 24.0271 46.3728 24.1319C47.6904 24.3266 48.7142 25.0191 49.0661 26.3574C49.4348 27.312 49.4292 28.1037 49.1821 28.7513C48.7872 29.7938 47.7241 30.4826 46.3447 30.8663C43.6737 31.6113 39.803 31.1919 37.8883 30.4114L37.887 30.4109C37.8058 30.4506 37.7251 30.4908 37.6449 30.5314C36.8081 30.9554 36.0594 31.4558 35.394 31.9006C35.1813 32.0428 34.9771 32.1792 34.7812 32.3057C34.4311 32.5324 34.1064 32.7174 33.8267 32.8766L33.8266 32.8767L33.8135 32.8841C33.3308 33.1571 32.993 33.3287 32.8695 33.3902C29.743 36.9477 26.2326 40.3158 22.4375 43.4984C22.5555 43.4816 22.6783 43.4657 22.8058 43.4515C23.0123 43.4287 23.2294 43.4079 23.455 43.3862C24.2293 43.312 25.1041 43.2282 25.9969 43.0209C26.2616 42.9591 26.5278 42.8907 26.7932 42.8139L26.8956 42.5907C28.1122 39.8486 30.2833 38.3044 32.7277 37.6063C33.7235 37.3236 34.7642 37.1795 35.7974 37.1627C37.3958 37.1383 38.9643 37.4061 40.3232 37.7785L40.6956 37.8646L40.5291 38.3175C39.3967 41.5818 37.3358 43.2139 35.1123 43.9177C32.4327 44.7651 29.489 44.2352 27.5547 43.5084C26.8491 43.8656 26.1183 44.1497 25.4055 44.376C24.8234 44.5613 24.26 44.7092 23.7285 44.8102C23.3223 44.8889 22.9387 44.9544 22.5868 44.975C22.2218 44.9937 21.898 44.975 21.6228 44.9506C21.2466 44.9165 20.969 44.87 20.8091 44.8387C17.6043 47.4284 14.2142 49.8916 10.6952 52.2305C15.8003 56.4587 22.3534 59 29.5 59ZM13.4697 33.7014C14.1311 31.6569 14.4544 29.4734 14.2919 27.3979C14.0991 24.9273 13.2232 22.612 11.4001 20.8844C10.1311 21.9401 9.47978 23.3682 9.22523 24.8899C9.04555 25.9568 9.0642 27.0741 9.25699 28.1672C9.70457 30.7106 11.0556 33.1327 12.9181 34.2467C12.7767 33.4689 12.5691 32.7373 12.2795 32.0737C12.2196 31.9502 12.272 31.8005 12.3955 31.7406C12.5209 31.6807 12.6707 31.7332 12.7306 31.8567C13.029 32.4212 13.2731 33.0409 13.4697 33.7014ZM27.5828 29.6835C27.7531 30.0423 27.8942 30.4371 28.0107 30.8544C28.6114 29.4345 28.6624 27.8545 28.38 26.4492C28.06 24.8564 27.3263 23.4733 26.4223 22.7957C25.945 22.4382 25.4265 22.2772 24.9081 22.4419C24.1968 22.7676 23.8712 23.3665 23.7663 24.0946C23.6728 24.7478 23.7981 25.4984 24.0508 26.3032C24.2511 26.9359 24.5393 27.5929 24.8987 28.2461C25.5075 29.3535 26.3253 30.4501 27.3172 31.3355C27.2882 30.8145 27.2226 30.317 27.098 29.865C27.0493 29.7322 27.1167 29.5825 27.2496 29.5319C27.3843 29.4833 27.5323 29.5506 27.5828 29.6835ZM29.6318 42.1357C29.3767 42.3569 29.1091 42.5624 28.8324 42.7533C30.5232 43.3038 32.7581 43.6265 34.8521 43.0418C36.7819 42.5009 38.5805 41.1812 39.7279 38.5664C38.2792 38.3418 36.634 38.3139 35.0113 38.5235C33.9088 38.6657 32.8119 38.9128 31.7975 39.3638C30.4804 39.9496 29.2982 40.8514 28.4335 42.206C28.7386 42.0624 29.0363 41.9014 29.323 41.7201C29.4372 41.6358 29.6 41.6603 29.6843 41.7744C29.7704 41.8886 29.746 42.0496 29.6318 42.1357ZM39.6958 29.6637C41.5504 30.1738 44.1612 30.4076 46.1163 29.966C47.8944 29.5617 49.111 28.5716 48.4577 26.5745C48.1096 25.8164 47.4807 25.4627 46.7264 25.3486C46.0377 25.2437 45.2478 25.3766 44.4167 25.6462C43.7523 25.8595 43.071 26.1702 42.4028 26.5557C41.3332 27.1717 40.3047 27.9812 39.5237 28.9329C40.0549 28.844 40.5928 28.7911 41.13 28.7851C41.2723 28.7739 41.3976 28.8786 41.4089 29.0209C41.4201 29.1631 41.3153 29.2885 41.1731 29.2997C40.6721 29.3792 40.1785 29.5052 39.6958 29.6637ZM40.5553 21.0663C40.2633 21.8764 39.9916 22.602 39.7202 23.2724C41.0214 22.1471 41.9962 20.334 42.5855 18.4907C43.2481 16.4206 43.4258 14.2887 42.9336 12.9317C42.6584 12.1774 42.1737 11.6758 41.4101 11.659C40.2833 11.7394 39.4373 12.2036 38.7878 12.8886C38.1495 13.5624 37.7414 14.4759 37.4794 15.5128C37.2642 16.3663 37.1612 17.3003 37.1481 18.2661C37.1257 20.2782 37.5076 22.4175 38.2806 24.1563C38.3072 24.1461 38.3338 24.1356 38.3603 24.1249C38.8361 23.1492 39.2807 22.0752 39.788 20.7781C39.8666 20.5647 40.1043 20.4579 40.3158 20.5366C40.5292 20.617 40.6358 20.8548 40.5553 21.0663ZM7.24304 35.231C6.96977 36.3372 6.96602 37.2693 7.12137 38.0592C7.25427 38.733 7.52565 39.2927 7.92619 39.7513C8.83959 40.7994 10.3519 41.3366 12.057 41.4583C12.0233 39.5884 11.6153 38.3063 10.9883 37.4097C10 35.9947 8.5027 35.5436 7.24304 35.231Z" fill="#343D33"/>
</svg>
